<svg width="275" height="69" viewBox="0 0 275 69" fill="none" xmlns="http://www.w3.org/2000/svg">
<path fill-rule="evenodd" clip-rule="evenodd" d="M56.7715 8.87097C63.0463 15.3832 66.5323 24.0663 66.5323 33.2661H33.2661L56.7715 8.87097Z" fill="#FF0000"/>
<path fill-rule="evenodd" clip-rule="evenodd" d="M35.4839 0C44.1293 0 52.023 3.78477 57.6613 9.76073L35.4839 33.2661V0Z" fill="#B0000B"/>
<path fill-rule="evenodd" clip-rule="evenodd" d="M0 0H35.4839V33.2661L0 0Z" fill="#FF0000"/>
<path fill-rule="evenodd" clip-rule="evenodd" d="M0 19.1231V0L35.4839 33.2661H15.1469L0 19.1231Z" fill="#B0000B"/>
<path fill-rule="evenodd" clip-rule="evenodd" d="M56.7715 59.879C63.0463 52.7747 66.5323 43.3023 66.5323 33.2661H33.2661L56.7715 59.879Z" fill="#B0000B"/>
<path fill-rule="evenodd" clip-rule="evenodd" d="M35.4839 68.75C44.1293 68.75 52.023 64.7129 57.6613 58.3386L35.4839 33.2661V68.75Z" fill="#DE0007"/>
<path fill-rule="evenodd" clip-rule="evenodd" d="M0 68.75H35.4839V33.2661L0 68.75Z" fill="#FF0000"/>
<path fill-rule="evenodd" clip-rule="evenodd" d="M0 48.413V68.75L35.4839 33.2661H15.1469L0 48.413Z" fill="#DE0007"/>
<path fill-rule="evenodd" clip-rule="evenodd" d="M25.6141 34.6014L29.3278 30.8159L21.5094 22.8464H9L20.5321 34.6014H25.6141Z" fill="white"/>
<path fill-rule="evenodd" clip-rule="evenodd" d="M34.2138 25.9351L30.5001 29.7206L22.584 21.7511V9L34.2138 20.7549V25.9351Z" fill="white"/>
<path fill-rule="evenodd" clip-rule="evenodd" d="M34.2149 44.9616L30.5011 41.1761L22.585 49.1456V61.8967L34.2149 50.1418V44.9616Z" fill="white"/>
<path fill-rule="evenodd" clip-rule="evenodd" d="M25.6141 36.2958L29.3278 40.0813L21.5094 48.0507H9L20.5321 36.2958H25.6141Z" fill="white"/>
<path fill-rule="evenodd" clip-rule="evenodd" d="M44.3788 36.2953L40.665 40.0808L48.4834 48.0502H60.8951L49.363 36.2953H44.3788Z" fill="white"/>
<path fill-rule="evenodd" clip-rule="evenodd" d="M35.7776 44.9616L39.4914 41.1761L47.3098 49.1456V61.8967L35.7776 50.1418V44.9616Z" fill="white"/>
<path fill-rule="evenodd" clip-rule="evenodd" d="M35.7779 25.9351L39.4916 29.7206L47.31 21.7511V9L35.7779 20.7549V25.9351Z" fill="white"/>
<path fill-rule="evenodd" clip-rule="evenodd" d="M44.3788 34.6013L40.665 30.8158L48.4834 22.8463H60.8951L49.363 34.6013H44.3788Z" fill="white"/>
<path fill-rule="evenodd" clip-rule="evenodd" d="M90.9535 25.1903C92.2775 25.1903 93.2485 24.9254 93.9547 24.3958C94.6609 23.8662 95.014 23.16 95.014 22.189C95.014 20.247 93.6899 19.276 91.0417 19.276H86.0102V25.1903H90.9535ZM80.8905 7.00623H98.5449V11.0667H85.922V15.5686H92.0127C94.6609 15.5686 96.6911 16.0982 98.1035 17.2458C99.5158 18.3933 100.222 19.9822 100.222 22.0125C100.222 24.2193 99.4276 25.8964 97.927 27.1322C96.4263 28.368 94.2195 28.9859 91.3948 28.9859H80.9787V7.00623H80.8905Z" fill="#645F5B"/>
<path fill-rule="evenodd" clip-rule="evenodd" d="M118.495 19.5409V16.4514C118.495 14.5977 118.053 13.2736 117.171 12.3026C116.288 11.3316 115.052 10.8903 113.552 10.8903C111.963 10.8903 110.727 11.3316 109.844 12.3026C108.961 13.2736 108.52 14.5977 108.52 16.4514V19.5409H118.495ZM118.848 7.80074C120.349 8.59518 121.496 9.74272 122.379 11.3316C123.173 12.9205 123.615 14.7742 123.615 16.8927V28.8977H118.583V23.6014H108.608V28.8977H103.577V16.8927C103.577 14.6859 104.018 12.8322 104.813 11.3316C105.607 9.83099 106.843 8.59518 108.344 7.80074C109.844 7.00629 111.61 6.6532 113.64 6.6532C115.582 6.6532 117.347 7.00629 118.848 7.80074Z" fill="#645F5B"/>
<path fill-rule="evenodd" clip-rule="evenodd" d="M148.771 7.00623V28.8977H143.739V19.8939H133.765V28.8977H128.733V7.00623H133.765V15.6569H143.739V7.00623H148.771Z" fill="#645F5B"/>
<path fill-rule="evenodd" clip-rule="evenodd" d="M162.454 20.0705H159.011V28.8977H153.98V7.00623H159.011V15.8334H162.63L168.368 7.00623H173.664L166.514 17.5989L173.929 28.8977H168.191L162.454 20.0705Z" fill="#645F5B"/>
<path fill-rule="evenodd" clip-rule="evenodd" d="M95.8086 58.28V49.6293C95.8086 47.9521 95.3673 46.6281 94.4845 45.7453C93.6018 44.8626 92.366 44.4213 90.8654 44.4213C89.3648 44.4213 88.129 44.8626 87.2462 45.7453C86.3635 46.6281 85.9222 47.9521 85.9222 49.6293V58.28H95.8086ZM103.577 58.28V66.9306H98.8981V62.4287H82.9209V66.9306H78.2425V58.28H80.8907V50.0707C80.8907 47.9521 81.332 46.1867 82.1265 44.6861C82.9209 43.1855 84.1567 42.0379 85.6573 41.3317C87.158 40.5373 88.9234 40.1842 90.9537 40.1842C92.9839 40.1842 94.7493 40.5373 96.25 41.3317C97.7506 42.1262 98.8981 43.2737 99.7808 44.6861C100.575 46.1867 101.017 47.9521 101.017 50.0707V58.28H103.577Z" fill="#645F5B"/>
<path fill-rule="evenodd" clip-rule="evenodd" d="M122.025 53.0735V49.984C122.025 48.1303 121.583 46.8062 120.701 45.8352C119.818 44.8642 118.582 44.4229 117.082 44.4229C115.493 44.4229 114.257 44.8642 113.374 45.8352C112.491 46.8062 112.05 48.1303 112.05 49.984V53.0735H122.025ZM122.378 41.2451C123.878 42.0395 125.026 43.187 125.909 44.7759C126.703 46.3648 127.145 48.2186 127.145 50.3371V62.3421H122.113V57.0458H112.138V62.3421H107.107V50.3371C107.107 48.1303 107.548 46.2766 108.343 44.7759C109.137 43.2753 110.373 42.0395 111.873 41.2451C113.374 40.4506 115.14 40.0975 117.17 40.0975C119.112 40.0975 120.877 40.4506 122.378 41.2451Z" fill="#645F5B"/>
<path fill-rule="evenodd" clip-rule="evenodd" d="M142.327 58.6346C143.651 58.6346 144.622 58.3698 145.329 57.8401C146.035 57.3105 146.388 56.6043 146.388 55.6333C146.388 53.6914 145.064 52.7204 142.416 52.7204H137.384V58.6346H142.327ZM132.264 40.4506H149.919V44.5111H137.296V49.0129H143.387C146.035 49.0129 148.065 49.5426 149.477 50.6901C150.89 51.8376 151.596 53.4265 151.596 55.4568C151.596 57.6636 150.801 59.3408 149.301 60.5766C147.712 61.8124 145.593 62.4303 142.769 62.4303H132.264V40.4506Z" fill="#645F5B"/>
<path fill-rule="evenodd" clip-rule="evenodd" d="M167.926 52.1019C168.72 51.3957 169.162 50.2482 169.162 48.9241C169.162 47.5118 168.72 46.4525 167.926 45.658C167.132 44.8636 165.984 44.5105 164.572 44.5105C163.071 44.5105 161.924 44.9519 161.129 45.8346C160.335 46.7173 159.893 47.8648 159.893 49.4537V51.9254C160.511 52.3667 161.217 52.7198 162.012 52.9846C162.806 53.2494 163.601 53.3377 164.483 53.3377C165.984 53.1612 167.132 52.8081 167.926 52.1019ZM171.633 42.4803C173.311 43.9809 174.193 46.0994 174.193 48.8358C174.193 51.3957 173.399 53.426 171.898 54.8383C170.309 56.339 168.191 57.0451 165.366 57.0451C164.483 57.0451 163.512 56.9569 162.718 56.7803C161.835 56.6038 160.953 56.2507 159.893 55.8093V62.3415H154.862V49.3655C154.862 46.4525 155.656 44.1574 157.333 42.5685C159.011 40.9796 161.306 40.1852 164.483 40.1852C167.485 40.1852 169.956 40.9796 171.633 42.4803Z" fill="#645F5B"/>
<path fill-rule="evenodd" clip-rule="evenodd" d="M192.643 52.9855V49.896C192.643 48.0423 192.201 46.7182 191.319 45.7472C190.436 44.7762 189.2 44.3349 187.699 44.3349C186.111 44.3349 184.875 44.7762 183.992 45.7472C183.109 46.7182 182.668 48.0423 182.668 49.896V52.9855H192.643ZM192.996 41.2453C194.496 42.0398 195.644 43.1873 196.527 44.7762C197.321 46.3651 197.762 48.2188 197.762 50.3374V62.3424H192.731V57.046H182.756V62.3424H177.725V50.3374C177.725 48.1306 178.166 46.2768 178.961 44.7762C179.755 43.2756 180.991 42.0398 182.491 41.2453C183.992 40.4509 185.757 40.0978 187.788 40.0978C189.73 40.0095 191.495 40.4509 192.996 41.2453Z" fill="#645F5B"/>
<path fill-rule="evenodd" clip-rule="evenodd" d="M212.945 58.5463C214.269 58.5463 215.24 58.2815 215.946 57.7519C216.653 57.2222 217.006 56.5161 217.006 55.5451C217.006 53.6031 215.682 52.6321 213.033 52.6321H208.002V58.5463H212.945ZM202.882 40.4506H220.537V44.5111H207.914V49.0129H214.004C216.653 49.0129 218.683 49.5426 220.095 50.6901C221.508 51.8376 222.214 53.4265 222.214 55.4568C222.214 57.6636 221.419 59.3408 219.919 60.5766C218.33 61.8124 216.211 62.4303 213.387 62.4303H202.882V40.4506Z" fill="#645F5B"/>
<path fill-rule="evenodd" clip-rule="evenodd" d="M252.579 62.342H247.548V40.4506H252.579V62.342ZM238.544 57.7519C239.339 57.0457 239.692 56.0747 239.692 54.8389C239.692 53.6031 239.25 52.5438 238.456 51.9259C237.573 51.2198 236.514 50.8667 235.101 50.8667C234.307 50.8667 233.513 50.9549 232.718 51.2198C231.924 51.4846 231.129 51.8377 230.511 52.279V54.3976C230.511 55.8099 230.953 56.8692 231.747 57.6636C232.542 58.4581 233.689 58.8111 235.19 58.8111C236.602 58.8111 237.75 58.4581 238.544 57.7519ZM242.516 49.013C244.017 50.337 244.811 52.279 244.811 54.6624C244.811 57.2223 243.929 59.1642 242.252 60.5766C240.574 61.9889 238.103 62.6951 234.925 62.6951C231.835 62.6951 229.452 61.9889 227.863 60.5766C226.274 59.1642 225.48 57.134 225.48 54.3976V40.3623H230.511V48.2185C232.453 47.3358 234.395 46.8944 236.337 46.8944C238.897 46.9827 241.016 47.6889 242.516 49.013Z" fill="#645F5B"/>
<path fill-rule="evenodd" clip-rule="evenodd" d="M275 44.5111H267.938V62.342H262.995V44.5111H256.021V40.4506H275V44.5111Z" fill="#645F5B"/>
</svg>
