<svg width="30" height="30" viewBox="0 0 30 30" fill="none" xmlns="http://www.w3.org/2000/svg">
<g clip-path="url(#clip0)">
<path d="M28.624 10.6519H25.6728L24.181 4.80145C23.9935 4.06633 23.2429 3.62096 22.5079 3.80828L19.1066 4.67559C18.8773 4.73406 18.7387 4.9675 18.7972 5.1969C18.8557 5.42629 19.0891 5.56475 19.3185 5.50639L22.7198 4.63908C22.997 4.5686 23.2796 4.73635 23.3502 5.01332L23.5155 5.66143L1.03865 11.3928L0.873418 10.7448C0.839199 10.6106 0.859297 10.4711 0.92996 10.352C1.00068 10.233 1.11353 10.1485 1.24771 10.1143L16.7082 6.17195C16.9376 6.11348 17.0761 5.88004 17.0177 5.65064C16.9591 5.42125 16.7259 5.28279 16.4964 5.34115L1.03584 9.28351C0.300723 9.47095 -0.144823 10.2215 0.0426184 10.9565L3.213 23.3896C3.3715 24.0111 3.93242 24.4257 4.5463 24.4256C4.65845 24.4256 4.77247 24.4117 4.88603 24.3828L5.089 24.3311V24.8586C5.089 25.6172 5.70616 26.2344 6.46477 26.2344H28.624C29.3826 26.2344 29.9998 25.6172 29.9998 24.8586V12.0277C29.9998 11.2691 29.3826 10.6519 28.624 10.6519ZM5.08905 23.4463L4.67427 23.5521C4.3973 23.6227 4.11447 23.4548 4.0438 23.1778L2.10318 15.5674L5.08905 14.8061V23.4463ZM5.08905 12.0276V13.9213L1.89137 14.7367L1.25053 12.2235L5.39233 11.1674C5.20284 11.4032 5.08905 11.7023 5.08905 12.0276ZM24.7881 10.6518H21.3804L24.58 9.83599L24.7881 10.6518ZM23.7273 6.49205L24.3682 9.00525L17.9107 10.6519H7.41399L23.7273 6.49205ZM28.624 25.377H6.46483C6.17895 25.377 5.94634 25.1445 5.94634 24.8586V23.7794V12.0277C5.94634 11.7418 6.1789 11.5092 6.46483 11.5092H28.624C28.9099 11.5092 29.1424 11.7418 29.1424 12.0277V24.8586C29.1424 25.1445 28.9099 25.377 28.624 25.377Z" fill="#DD4246"/>
<path d="M17.0707 21.2047H7.73042C7.4937 21.2047 7.30175 21.3966 7.30175 21.6334C7.30175 21.8702 7.4937 22.0621 7.73042 22.0621H17.0707C17.3074 22.0621 17.4994 21.8702 17.4994 21.6334C17.4994 21.3967 17.3075 21.2047 17.0707 21.2047Z" fill="#DD4246"/>
<path d="M24.2142 13.6669C23.5985 13.6669 23.0287 13.8656 22.5643 14.2015C22.0858 13.8548 21.5117 13.6669 20.9126 13.6669C19.3565 13.6669 18.0905 14.9328 18.0905 16.489C18.0907 18.045 19.3566 19.311 20.9127 19.311C21.5118 19.311 22.0858 19.1231 22.5643 18.7764C23.0287 19.1123 23.5985 19.311 24.2142 19.311C25.7702 19.311 27.0362 18.045 27.0362 16.489C27.0362 14.9328 25.7702 13.6669 24.2142 13.6669ZM21.3955 16.6227C21.396 16.6338 21.3968 16.6447 21.3975 16.6557C21.3995 16.6916 21.4023 16.7275 21.4057 16.7631C21.4065 16.7715 21.4072 16.7798 21.4081 16.7881C21.4604 17.2894 21.6433 17.7603 21.9416 18.1626C21.6345 18.3521 21.2803 18.4536 20.9127 18.4536C19.8293 18.4536 18.9479 17.5723 18.9479 16.4889C18.948 15.4056 19.8294 14.5242 20.9127 14.5242C21.2803 14.5242 21.6345 14.6258 21.9416 14.8152C21.6433 15.2175 21.4604 15.6884 21.4081 16.1897C21.4072 16.1981 21.4065 16.2063 21.4057 16.2146C21.4023 16.2503 21.3996 16.2861 21.3975 16.322C21.3968 16.3331 21.396 16.344 21.3955 16.355C21.3935 16.3994 21.3921 16.444 21.3921 16.4889C21.3921 16.5337 21.3935 16.5783 21.3955 16.6227ZM24.2143 18.4537C23.6779 18.4537 23.1912 18.2374 22.8363 17.8877C22.829 17.8805 22.8217 17.8732 22.8145 17.8659C22.7982 17.8493 22.782 17.8325 22.7662 17.8152C22.7619 17.8105 22.7576 17.8057 22.7533 17.8009C22.7347 17.7803 22.7165 17.7594 22.6988 17.738C22.6987 17.7379 22.6986 17.7378 22.6985 17.7377C22.4182 17.3979 22.2495 16.9627 22.2495 16.4889C22.2495 16.0151 22.4182 15.5798 22.6986 15.2401C22.6986 15.24 22.6987 15.2399 22.6988 15.2398C22.7165 15.2184 22.7348 15.1975 22.7534 15.1768C22.7576 15.1721 22.7619 15.1673 22.7662 15.1626C22.782 15.1454 22.7983 15.1285 22.8147 15.1118C22.8218 15.1046 22.829 15.0974 22.8362 15.0902C23.1911 14.7405 23.6779 14.5242 24.2143 14.5242C25.2976 14.5242 26.179 15.4056 26.179 16.489C26.179 17.5723 25.2976 18.4537 24.2143 18.4537Z" fill="#DD4246"/>
<path d="M10.7852 13.9456H8.90519C8.02107 13.9456 7.30183 14.6648 7.30183 15.5489V17.429C7.30178 18.3131 8.02107 19.0323 8.90519 19.0323H10.7852C11.6693 19.0323 12.3886 18.3131 12.3886 17.429V15.5489C12.3886 14.6649 11.6694 13.9456 10.7852 13.9456ZM11.5312 16.7192H10.6167C10.38 16.7192 10.188 16.9111 10.188 17.1479C10.188 17.3847 10.3799 17.5766 10.6167 17.5766H11.5164C11.4477 17.9175 11.146 18.175 10.7852 18.175H8.90513C8.54426 18.175 8.24256 17.9175 8.17388 17.5766H9.07359C9.31031 17.5766 9.50226 17.3847 9.50226 17.1479C9.50226 16.9111 9.31037 16.7192 9.07359 16.7192H8.15912V16.3477H9.07359C9.31031 16.3477 9.50226 16.1558 9.50226 15.9191C9.50226 15.6823 9.31037 15.4904 9.07359 15.4904H8.16205C8.19205 15.1064 8.51349 14.8028 8.90513 14.8028H10.7852C11.1768 14.8028 11.4982 15.1064 11.5283 15.4904H10.6167C10.38 15.4904 10.188 15.6823 10.188 15.9191C10.188 16.1558 10.3799 16.3477 10.6167 16.3477H11.5312V16.7192Z" fill="#DD4246"/>
<path d="M27.1361 23.0909H12.2103C11.9736 23.0909 11.7817 23.2828 11.7817 23.5196C11.7817 23.7564 11.9736 23.9483 12.2103 23.9483H27.1361C27.3728 23.9483 27.5647 23.7564 27.5647 23.5196C27.5647 23.2828 27.3729 23.0909 27.1361 23.0909Z" fill="#DD4246"/>
<path d="M9.47736 23.0909H7.73051C7.49379 23.0909 7.30183 23.2828 7.30183 23.5196C7.30183 23.7564 7.49373 23.9483 7.73051 23.9483H9.47736C9.71408 23.9483 9.90604 23.7564 9.90604 23.5196C9.90604 23.2828 9.71408 23.0909 9.47736 23.0909Z" fill="#DD4246"/>
</g>
<defs>
<clipPath id="clip0">
<rect width="30" height="30" fill="white"/>
</clipPath>
</defs>
</svg>
