<svg width="30" height="30" viewBox="0 0 30 30" fill="none" xmlns="http://www.w3.org/2000/svg">
<g clip-path="url(#clip0)">
<path d="M26.8005 16.7566C26.1325 15.2014 25.1331 13.5831 23.8305 11.9468C23.6833 11.7618 23.4139 11.7312 23.229 11.8785C23.044 12.0257 23.0135 12.295 23.1607 12.48C24.416 14.0567 25.3759 15.6093 26.0139 17.0946C26.7868 18.8937 27.0888 20.6034 26.9116 22.1761C26.7284 23.8029 26.0086 25.1771 24.7722 26.2606C23.763 27.1451 22.4072 27.845 20.7426 28.3411C17.8634 29.1993 15.0387 29.1431 15.0105 29.1424C15.0036 29.1422 14.9966 29.1422 14.9898 29.1424C14.9613 29.1427 12.1366 29.1991 9.25743 28.3411C7.59283 27.845 6.23709 27.1451 5.22787 26.2606C3.99154 25.1772 3.27177 23.8029 3.08849 22.1761C2.80548 19.6637 3.72962 16.8544 5.83525 13.8262C7.42707 11.5368 9.36471 9.62222 10.5964 8.50636H19.4038C19.9575 9.00775 20.6695 9.6841 21.4236 10.4831C21.5859 10.6551 21.8569 10.6628 22.0288 10.5005C22.2007 10.3382 22.2085 10.0673 22.0462 9.89545C21.4487 9.2624 20.8771 8.70476 20.3862 8.24667C20.7166 8.00339 20.9314 7.61193 20.9314 7.17113C20.9314 6.43489 20.3324 5.83589 19.5962 5.83589H19.4739C19.9556 5.13077 20.5823 4.15969 21.0456 3.24997C21.6845 1.99524 21.8716 1.15617 21.6341 0.609316C21.4931 0.284706 21.2029 0.0745887 20.8169 0.0176355C20.244 -0.0670327 19.4881 0.163007 18.5312 0.454277C17.4507 0.783047 16.2261 1.15576 15 1.15576C13.774 1.15576 12.5493 0.783047 11.4689 0.454277C10.512 0.163065 9.756 -0.0669741 9.18307 0.0176355C8.79705 0.0745887 8.50684 0.284706 8.36592 0.609316C8.12844 1.15617 8.31547 1.99524 8.95444 3.24997C9.4178 4.15975 10.0445 5.13083 10.5261 5.83589H10.4038C9.66758 5.83589 9.06858 6.43489 9.06858 7.17113C9.06858 7.61175 9.28321 8.0031 9.61333 8.24638C6.64789 11.0117 1.60097 16.6206 2.2377 22.2719C2.60978 25.5743 4.95915 27.9586 9.03196 29.1672C11.979 30.0417 14.7766 30.0029 15 29.9984C15.0256 29.9989 15.0849 29.9999 15.1745 29.9999C15.8665 29.9999 18.3588 29.9415 20.9681 29.1672C25.0409 27.9587 27.3902 25.5743 27.7624 22.2719C27.9564 20.5496 27.6328 18.694 26.8005 16.7566ZM9.15114 0.950274C9.16268 0.923614 9.1802 0.88336 9.30805 0.864493C9.69084 0.808184 10.4334 1.03395 11.2196 1.27318C12.3008 1.60225 13.6466 2.01176 15 2.01176C16.3534 2.01176 17.6991 1.60225 18.7804 1.27318C19.5665 1.03395 20.3094 0.808301 20.6918 0.864493C20.8197 0.88336 20.8372 0.923614 20.8488 0.950274C20.8868 1.03775 21.1481 1.90946 18.654 5.51743C18.5835 5.6195 18.5238 5.72614 18.4748 5.83583H11.5252C11.4762 5.72614 11.4166 5.6195 11.346 5.51743C8.8519 1.90951 9.11323 1.03781 9.15114 0.950274ZM10.4039 6.69195H19.5962C19.8604 6.69195 20.0753 6.90687 20.0753 7.17107C20.0753 7.43527 19.8604 7.65019 19.5962 7.65019H10.4039C10.1397 7.65019 9.92475 7.43527 9.92475 7.17107C9.92475 6.90687 10.1396 6.69195 10.4039 6.69195Z" fill="#DD4246"/>
<path d="M19.9225 13.7069C18.6076 12.3921 16.8594 11.668 15 11.668C13.1405 11.668 11.3924 12.3921 10.0775 13.7069C9.11664 14.6678 8.46255 15.8759 8.18599 17.2006C8.13771 17.432 8.28613 17.6588 8.51751 17.7071C8.74884 17.7554 8.97572 17.607 9.024 17.3755C9.2664 16.2143 9.84004 15.155 10.6829 14.3122C13.0633 11.9318 16.9365 11.9318 19.317 14.3122C21.6974 16.6926 21.6974 20.5659 19.317 22.9464C16.9367 25.3268 13.0633 25.3269 10.683 22.9465C9.86054 22.124 9.29283 21.0923 9.04129 19.9628C8.9899 19.732 8.76126 19.5865 8.5304 19.638C8.29966 19.6894 8.15423 19.9181 8.20562 20.1488C8.49261 21.4374 9.1399 22.6141 10.0776 23.5518C11.4347 24.9089 13.2174 25.5875 15 25.5875C16.7827 25.5875 18.5653 24.909 19.9225 23.5518C22.6366 20.8376 22.6366 16.4212 19.9225 13.7069Z" fill="#DD4246"/>
</g>
<defs>
<clipPath id="clip0">
<rect width="30" height="30" fill="white"/>
</clipPath>
</defs>
</svg>
