<svg width="30" height="30" viewBox="0 0 30 30" fill="none" xmlns="http://www.w3.org/2000/svg">
<path d="M24.3872 4.90767L24.0722 2.65814C24.0564 2.54487 23.9958 2.44269 23.9041 2.37437C23.8124 2.3061 23.6972 2.27739 23.584 2.29474L21.1057 2.67431C20.8723 2.71005 20.712 2.92831 20.7477 3.16175C20.7835 3.39525 21.0019 3.55562 21.2352 3.51976L22.6793 3.29857C20.7481 5.6862 18.671 7.71999 16.4955 9.34954C14.6024 10.7675 12.6312 11.8851 10.6365 12.6715C7.24159 14.0097 4.92338 13.9218 4.90059 13.921C4.66422 13.909 4.46483 14.0917 4.4534 14.3274C4.44192 14.5633 4.62385 14.7638 4.85975 14.7753C4.8737 14.7759 4.93206 14.7784 5.03213 14.7784C5.64831 14.7784 7.84042 14.6839 10.8965 13.4881C12.9688 12.6773 15.0139 11.5235 16.9751 10.0588C19.2287 8.3756 21.3767 6.27378 23.3693 3.80564L23.5401 5.02626C23.5701 5.24007 23.7532 5.39464 23.9631 5.39464C23.9828 5.39464 24.0029 5.39329 24.023 5.39048C24.2569 5.35773 24.4199 5.14157 24.3872 4.90767Z" fill="#DD4246"/>
<path d="M29.2109 25.3563H25.7551C26.0396 25.1671 26.3075 24.9486 26.5545 24.7015C27.5283 23.7277 28.0645 22.433 28.0645 21.0559C28.0645 19.6788 27.5283 18.3841 26.5545 17.4104C26.2076 17.0635 25.8226 16.778 25.4136 16.5508V14.8244C25.4136 14.5882 25.2221 14.3968 24.986 14.3968C24.7498 14.3968 24.5583 14.5882 24.5583 14.8244V16.171C23.3878 15.7747 22.1168 15.8124 20.9738 16.2764V11.0236C20.9738 10.9683 21.0188 10.9233 21.0741 10.9233H24.458C24.5133 10.9233 24.5583 10.9683 24.5583 11.0236V12.085C24.5583 12.3212 24.7498 12.5126 24.986 12.5126C25.2221 12.5126 25.4136 12.3211 25.4136 12.085V11.0236C25.4136 10.4966 24.9849 10.068 24.458 10.068H21.0741C20.5471 10.068 20.1185 10.4966 20.1185 11.0236V16.7214C19.8155 16.9164 19.5283 17.1454 19.2635 17.4103C18.2897 18.3841 17.7534 19.6788 17.7534 21.0558C17.7534 22.433 18.2897 23.7276 19.2635 24.7014C19.5105 24.9484 19.7784 25.167 20.0629 25.3561H17.3624V14.9038C17.3624 14.3769 16.9338 13.9482 16.4068 13.9482H13.023C12.4961 13.9482 12.0674 14.3769 12.0674 14.9038V25.3563H9.31131V18.4216C9.31131 17.8947 8.88264 17.466 8.3557 17.466H4.9718C4.44486 17.466 4.01619 17.8947 4.01619 18.4216V25.3563H2.25469V3.36391C2.25469 2.92879 1.90072 2.57483 1.46561 2.57483H0.789082C0.353965 2.57483 0 2.92879 0 3.36391V6.39989C0 6.63608 0.191484 6.8275 0.427617 6.8275C0.66375 6.8275 0.855234 6.63602 0.855234 6.39989V3.43012H1.39934V25.4225C1.39934 25.8576 1.75336 26.2115 2.18842 26.2115H29.1446V26.8551H0.855293V9.10223C0.855293 8.86604 0.663809 8.67461 0.427676 8.67461C0.191543 8.67461 0 8.86604 0 9.10223V26.9212C0 27.3564 0.353965 27.7103 0.789082 27.7103H29.2109C29.646 27.7103 30 27.3564 30 26.9212V26.1453C30 25.7102 29.646 25.3563 29.2109 25.3563ZM8.45602 25.3563H4.87148V18.4216C4.87148 18.3663 4.91648 18.3213 4.9718 18.3213H8.3557C8.41102 18.3213 8.45602 18.3663 8.45602 18.4216V25.3563ZM12.9226 25.3563V14.9038C12.9226 14.8485 12.9676 14.8035 13.0229 14.8035H16.4068C16.4621 14.8035 16.5071 14.8485 16.5071 14.9038V25.3563H12.9226ZM24.7981 24.919C24.365 25.1308 23.8944 25.2685 23.415 25.3258C23.4069 25.3267 23.3989 25.3278 23.3908 25.3288C23.358 25.3325 23.3253 25.3357 23.2925 25.3387C23.2424 25.3431 23.1923 25.3471 23.142 25.3497C23.1261 25.3506 23.1103 25.351 23.0944 25.3517C23.0328 25.3543 22.971 25.3563 22.909 25.3563C22.8468 25.3563 22.7849 25.3543 22.7231 25.3517C22.7036 25.3509 22.684 25.35 22.6646 25.3489C22.618 25.3463 22.5716 25.3427 22.5253 25.3387C22.4868 25.3352 22.4484 25.3312 22.4101 25.3267C22.3827 25.3235 22.3553 25.3203 22.3281 25.3166C22.2891 25.3113 22.2503 25.3056 22.2115 25.2992C22.2064 25.2984 22.2014 25.2975 22.1964 25.2966C21.6918 25.2119 21.2045 25.0379 20.76 24.7811C20.7577 24.7798 20.7552 24.7789 20.7529 24.7776C20.4338 24.592 20.1362 24.3647 19.8682 24.0967C19.056 23.2844 18.6087 22.2046 18.6087 21.0559C18.6087 19.9072 19.056 18.8273 19.8682 18.0151C20.1792 17.7041 20.5266 17.4511 20.8965 17.2554C20.907 17.2499 20.9175 17.2446 20.928 17.2391C21.5469 16.9184 22.2278 16.7576 22.909 16.7576C23.4535 16.7576 23.9979 16.8605 24.5106 17.0655C24.5196 17.069 24.5285 17.0724 24.5374 17.0761C24.5906 17.0978 24.6434 17.1209 24.6959 17.1448C24.7168 17.1544 24.7377 17.1643 24.7585 17.1742C25.1895 17.3791 25.5935 17.6589 25.9497 18.015C27.6264 19.6918 27.6264 22.4199 25.9497 24.0966C25.6126 24.4339 25.2288 24.707 24.8137 24.9126C24.8085 24.9149 24.8032 24.9165 24.7981 24.919Z" fill="#DD4246"/>
</svg>
