<svg width="17" height="17" viewBox="0 0 17 17" fill="none" xmlns="http://www.w3.org/2000/svg">
<g clip-path="url(#clip0)">
<path d="M16.6602 12.3864L10.7043 2.07042C9.73154 0.366257 7.27153 0.366257 6.30222 2.07042L0.342906 12.3864C-0.6299 14.0905 0.580859 16.2076 2.54397 16.2076H14.4381C16.4012 16.2076 17.633 14.0695 16.6602 12.3864ZM8.49978 13.9191C7.98188 13.9191 7.55147 13.4886 7.55147 12.9707C7.55147 12.4529 7.98188 12.0224 8.49978 12.0224C9.01768 12.0224 9.44809 12.4529 9.4271 12.9952C9.45159 13.4886 8.99668 13.9191 8.49978 13.9191ZM9.36411 7.78828C9.32212 8.52313 9.27663 9.25449 9.23463 9.98934C9.21364 10.2273 9.21364 10.4443 9.21364 10.6787C9.19264 11.0671 8.8882 11.3681 8.49978 11.3681C8.11136 11.3681 7.81042 11.0881 7.78592 10.6997C7.72294 9.55543 7.65645 8.43215 7.59346 7.28788C7.57247 6.98694 7.55147 6.6825 7.52698 6.38156C7.52698 5.88466 7.80692 5.47524 8.26183 5.34577C8.71674 5.23729 9.16815 5.45424 9.36411 5.88466C9.4306 6.03513 9.45159 6.1856 9.45159 6.36056C9.4306 6.83997 9.38511 7.31587 9.36411 7.78828Z" fill="#49494B"/>
</g>
<defs>
<clipPath id="clip0">
<rect width="17" height="17" fill="white" transform="matrix(1 0 0 -1 0 17)"/>
</clipPath>
</defs>
</svg>
