<svg width="55" height="54" fill="none" xmlns="http://www.w3.org/2000/svg"><path d="M53.91 12.798a2.7 2.7 0 0 0-1.26-1.638 2.7 2.7 0 0 0-3.69.99l-.45.783a.9.9 0 0 0-1.224.324L45 17.154l-.783-.45a.901.901 0 0 0-1.233.333.9.9 0 0 0 .333 1.224l.783.45-7.65 13.257-1.89 5.049-.9 1.682a2.7 2.7 0 0 0 .144 2.917l-2.025 2.483-.567-1.421A1.8 1.8 0 0 0 28 42.426l-.324.548-.306-3.6a1.8 1.8 0 0 0-3.501-.422l-2.214 6.642a.9.9 0 0 0 .567 1.134c.088.04.182.065.279.072a.9.9 0 0 0 .855-.612l2.205-6.642.315 3.654a1.8 1.8 0 0 0 3.339.774l.333-.55.558 1.414a1.8 1.8 0 0 0 3.078.459l2.097-2.655c.232.06.471.09.711.09a2.7 2.7 0 0 0 2.35-1.332l.9-1.503 3.428-4.167 7.73-13.42.783.45a.9.9 0 0 1 .333 1.234l-3.6 6.237a.9.9 0 0 0 .288 1.268.899.899 0 0 0 1.233-.332l3.6-6.237a2.698 2.698 0 0 0-.99-3.69l-.783-.45 2.25-3.897a.9.9 0 0 0-.324-1.224l.45-.783a2.7 2.7 0 0 0 .27-2.088zm-3.393.252a.9.9 0 0 1 .55-.423.945.945 0 0 1 .683.09.9.9 0 0 1 .423.549.945.945 0 0 1-.09.684l-.45.783-1.566-.9.45-.784zM38.25 38.178l-.45-.261-1.332-.774 1.278-3.42 2.835 1.638-2.331 2.817zm-2.7 2.6a.9.9 0 0 1-.27-1.178l.45-.783 1.566.9-.45.774a.9.9 0 0 1-1.296.288zm6.057-6.893l-3.114-1.8 7.2-12.474 3.114 1.8-7.2 12.474zm8.1-14.031l-3.114-1.8 1.8-3.114 3.114 1.8-1.8 3.114zM14.201 40.329l-3.185 3.177-1.908-1.908a.9.9 0 1 0-1.27 1.278l1.909 1.908a1.8 1.8 0 0 0 1.269.522 1.8 1.8 0 0 0 1.278-.522l3.176-3.186a.9.9 0 0 0-1.269-1.27z" fill="#E21E23"/><path d="M3.6 42.75a7.65 7.65 0 1 0 15.3 0 .9.9 0 0 0-1.8 0 5.85 5.85 0 1 1-5.85-5.85 5.8 5.8 0 0 1 3.51 1.17.9.9 0 1 0 1.08-1.44A7.651 7.651 0 0 0 3.6 42.75zM32.4 7.2a.9.9 0 1 0 0-1.8H9a.9.9 0 0 0-.9.9v3.6a.9.9 0 0 0 .9.9h23.4a.9.9 0 1 0 0-1.8H9.9V7.2h22.5zm-20.7 5.4a.9.9 0 0 0 0 1.8h18a.9.9 0 1 0 0-1.8h-18z" fill="#E21E23"/><path d="M35.1 18.9H15.3a.9.9 0 0 0 0 1.8h19.8a.9.9 0 1 0 0-1.8zm-9 6.3a.9.9 0 0 0-.9-.9h-18a.9.9 0 0 0 0 1.8h18a.9.9 0 0 0 .9-.9zm9-.9h-6.3a.9.9 0 0 0 0 1.8h6.3a.9.9 0 1 0 0-1.8zm-18.9 6.3a.9.9 0 1 0 0-1.8h-9a.9.9 0 0 0 0 1.8h9zm3.6 0h6.3a.9.9 0 1 0 0-1.8h-6.3a.9.9 0 0 0 0 1.8z" fill="#1C1C1C"/><path d="M40.5 41.4a.9.9 0 0 0-.9.9v9a.9.9 0 0 1-.9.9h-36a.9.9 0 0 1-.9-.9V2.7a.9.9 0 0 1 .9-.9h36a.9.9 0 0 1 .9.9v16.902a.9.9 0 0 0 1.8 0V2.7A2.7 2.7 0 0 0 38.7 0h-36A2.7 2.7 0 0 0 0 2.7v48.6A2.7 2.7 0 0 0 2.7 54h36a2.7 2.7 0 0 0 2.7-2.7v-9a.9.9 0 0 0-.9-.9z" fill="#1C1C1C"/></svg>