<svg width="68" height="62" fill="none" xmlns="http://www.w3.org/2000/svg"><path d="M33.74 3.005c14.522 0 26.678 10.7 28.272 24.89l.251 2.23 4.987-4.909-1.547-1.523-1.838 1.807C61.217 11.304 48.635.85 33.74.85c-.757 0-1.522.027-2.269.081l.16 2.149c.695-.05 1.404-.075 2.109-.075zm.057 56.793c-14.258 0-26.193-10.94-27.758-25.444l-.246-2.278-4.897 5.017 1.52 1.557 1.803-1.848C6.82 51.315 19.173 62 33.797 62c.745 0 1.497-.027 2.228-.084l-.16-2.195a27.17 27.17 0 0 1-2.068.077z" fill="#E21E23"/><path d="M34.073 9.307c-11.837 0-21.467 9.777-21.467 21.793s9.63 21.793 21.467 21.793c11.837 0 21.468-9.777 21.468-21.793S45.91 9.307 34.073 9.307zm1.074 41.35v-5.392H33v5.393c-9.796-.55-17.65-8.524-18.193-18.468h5.313v-2.18h-5.313C15.35 20.066 23.204 12.093 33 11.542v5.393h2.147v-5.393c9.795.55 17.65 8.525 18.192 18.468h-5.312v2.18h5.312c-.542 9.944-8.397 17.917-18.192 18.468z" fill="#E21E23"/><path d="M60.094 31.416c0-14.343-11.669-26.012-26.01-26.012a25.93 25.93 0 0 0-17.575 6.84l1.465 1.596a23.771 23.771 0 0 1 16.11-6.268c13.147 0 23.843 10.696 23.843 23.844a23.769 23.769 0 0 1-6.269 16.108l1.599 1.465a25.94 25.94 0 0 0 6.837-17.573zm-49.874.02c0-5.98 2.226-11.701 6.268-16.11l-1.598-1.465a25.942 25.942 0 0 0-6.838 17.575c0 14.341 11.67 26.01 26.012 26.01a25.936 25.936 0 0 0 17.573-6.838l-1.465-1.599a23.766 23.766 0 0 1-16.108 6.27c-13.148 0-23.844-10.696-23.844-23.843z" fill="#1C1C1C"/><path d="M35.244 28.192v-9.127h-2.212v9.127a3.339 3.339 0 0 0-2.211 3.14c0 1.845 1.488 3.346 3.317 3.346 1.44 0 2.657-.935 3.114-2.23h4.628v-2.23h-4.628a3.326 3.326 0 0 0-2.008-2.026zm-1.106 4.256c-.61 0-1.105-.501-1.105-1.116 0-.614.495-1.115 1.105-1.115s1.106.5 1.106 1.115-.495 1.116-1.106 1.116zm-7.22-30.515l2.17-.432.432 2.17-2.17.432-.433-2.17zm-5.205 1.631l1.841-.762.762 1.84-1.84.762-.763-1.84zM16.51 6.706l1.56-1.302 1.041 1.95-1.56 1.303-1.042-1.95zm-4.555 3.902l1.302-1.3 1.3 1.3-1.3 1.302-1.302-1.302zM8.052 15.16l1.303-1.95 1.95 1.304-1.303 1.95-1.95-1.304zM5.45 20.715l.953-2.3 2.3.953-.953 2.3-2.3-.953zM4.149 26.44l.432-2.17 2.17.43-.431 2.172-2.171-.432zm34.478 32.74l2.17-.433.432 2.17-2.17.432-.432-2.17zm5.204-1.432l1.84-.952.762 2.3-1.84.952-.762-2.3zm5.204-2.252l1.561-1.302 1.042 1.95-1.56 1.302-1.043-1.95zm3.904-3.579l1.626-1.627 1.626 1.627-1.626 1.626-1.626-1.626zm3.903-3.969l1.303-1.56 1.95 1.041-1.303 1.56-1.95-1.041zm2.602-4.925l.951-1.84 2.301.762-.952 1.84-2.3-.762zm1.951-4.874l.432-2.17 2.17.432-.432 2.17-2.17-.432z" fill="#1C1C1C"/></svg>