<svg width="51" height="57" fill="none" xmlns="http://www.w3.org/2000/svg"><path d="M35.478 0a1.11 1.11 0 0 0-1.108 1.113v5.121c0 .615.496 1.114 1.108 1.114.612 0 1.109-.499 1.109-1.114v-5.12C36.587.498 36.09 0 35.478 0zm-25.5 34.734c-.612 0-1.108.5-1.108 1.114a1.11 1.11 0 0 0 1.108 1.113c.612 0 1.109-.499 1.109-1.113 0-.615-.497-1.114-1.109-1.114z" fill="#E21E23"/><path d="M51 32.508c0-2.456-1.99-4.453-4.435-4.453H38.29c1.28-3.296 1.8-7.175 1.7-10.628-.02-.66-.045-1.04-.079-1.28-.057-2.405-2.024-4.346-4.432-4.346-2.445 0-4.434 1.998-4.434 4.453v1.113c0 7.041-9.005 10.997-15.8 12.694a3.33 3.33 0 0 0-3.048-2.006H1.109A1.11 1.11 0 0 0 0 29.168v26.719C0 56.5.496 57 1.109 57h11.087a3.33 3.33 0 0 0 3.038-1.983 360.1 360.1 0 0 1 1.567.409C20.67 56.44 22.804 57 27.99 57h11.922c2.445 0 4.435-1.998 4.435-4.453a4.44 4.44 0 0 0-.75-2.476 4.453 4.453 0 0 0 2.967-4.204 4.47 4.47 0 0 0-.742-2.478 4.454 4.454 0 0 0 2.96-4.202 4.44 4.44 0 0 0-.751-2.475A4.453 4.453 0 0 0 51 32.508zM13.304 53.66c0 .614-.497 1.113-1.108 1.113H2.217V30.281h9.979c.611 0 1.108.5 1.108 1.114V53.66zm33.261-18.926h-5.543c-.612 0-1.109.499-1.109 1.114 0 .614.497 1.113 1.109 1.113h3.326c1.223 0 2.217.999 2.217 2.227a2.22 2.22 0 0 1-2.217 2.226h-5.544a1.11 1.11 0 0 0-1.108 1.113c0 .615.496 1.114 1.108 1.114h3.326c1.209 0 2.218.969 2.218 2.226 0 1.23-.993 2.227-2.218 2.227h-5.543c-.612 0-1.109.498-1.109 1.113s.497 1.113 1.109 1.113h3.326c1.223 0 2.217 1 2.217 2.227a2.224 2.224 0 0 1-2.217 2.226H27.99c-4.901 0-6.815-.502-10.629-1.502-.559-.146-1.171-.307-1.84-.478V32.288c8.024-1.92 17.74-6.603 17.74-14.92v-1.114c0-1.228.995-2.227 2.217-2.227 1.22 0 2.215.998 2.218 2.223v.004c0 .484.601 6.422-1.81 11.8h-3.734c-.612 0-1.108.5-1.108 1.114a1.11 1.11 0 0 0 1.108 1.113h14.413c1.223 0 2.218 1 2.218 2.227 0 1.23-.993 2.226-2.218 2.226z" fill="#1C1C1C"/><path d="M9.978 39.187c-.612 0-1.108.499-1.108 1.114v8.906a1.11 1.11 0 0 0 1.108 1.113 1.11 1.11 0 0 0 1.109-1.113v-8.906c0-.615-.496-1.114-1.109-1.114zm16.631-25.16h-4.435c-.612 0-1.109.499-1.109 1.114 0 .614.497 1.113 1.109 1.113h4.435a1.11 1.11 0 0 0 1.108-1.113c0-.615-.496-1.114-1.108-1.114zm22.174 0h-4.435c-.612 0-1.109.499-1.109 1.114 0 .614.497 1.113 1.109 1.113h4.435a1.11 1.11 0 0 0 1.108-1.113c0-.615-.496-1.114-1.108-1.114zm-3.113-9.12a1.106 1.106 0 0 0-1.569 0l-3.135 3.149a1.117 1.117 0 0 0 0 1.574 1.106 1.106 0 0 0 1.568 0l3.135-3.148a1.117 1.117 0 0 0 0-1.575zM29.99 8.056l-3.135-3.149a1.106 1.106 0 0 0-1.568 0 1.117 1.117 0 0 0 0 1.575l3.135 3.148a1.106 1.106 0 0 0 1.568 0 1.117 1.117 0 0 0 0-1.574z" fill="#E21E23"/></svg>