<svg width="76" height="76" fill="none" xmlns="http://www.w3.org/2000/svg"><path d="M26.968 38c2.704 0 4.903-2.2 4.903-4.903h-2.452c0 1.352-1.1 2.451-2.451 2.451a2.454 2.454 0 0 1-2.452-2.451h-2.451A4.908 4.908 0 0 0 26.967 38zm-4.903-12.258a1.226 1.226 0 1 1-2.452 0 1.226 1.226 0 0 1 2.452 0zm12.258 0a1.226 1.226 0 1 1-2.452 0 1.226 1.226 0 0 1 2.452 0z" fill="#1C1C1C"/><path d="M41.677 36.774v9.74l-6.129-2.043v-3.433a13.504 13.504 0 0 0 4.4-6.789c3.036-.362 5.407-2.923 5.407-6.056v-9.806C45.355 8.248 37.106 0 26.968 0 16.829 0 8.58 8.248 8.58 18.387v9.806c0 3.133 2.37 5.694 5.407 6.056a13.505 13.505 0 0 0 4.4 6.789v3.433L5.866 48.646A8.567 8.567 0 0 0 0 56.785v11.86h41.677V76H76V44.847l-8.073-8.073h-26.25zm26.968 4.185l3.17 3.17h-3.17v-3.17zm-32.06 6.442l-1.868 9.338-5.86-4.186 5.797-5.796 1.932.644zM40.4 31.66c.026-.337.052-.673.052-1.016v-5.903c1.423.507 2.451 1.856 2.451 3.451 0 1.615-1.053 2.975-2.503 3.468zm-29.368-3.468c0-1.595 1.028-2.944 2.452-3.451v5.903c0 .343.026.68.051 1.017-1.45-.494-2.503-1.854-2.503-3.468zm2.687-6.028c-1 .164-1.911.57-2.687 1.157v-4.935c0-8.786 7.15-15.935 15.936-15.935S42.903 9.6 42.903 18.387v4.935a6.064 6.064 0 0 0-2.687-1.157c-.77-2.876-3.392-5.004-6.506-5.004a6.78 6.78 0 0 0-4.045 1.35l-2.697 2.021-2.696-2.021a6.783 6.783 0 0 0-4.046-1.35c-3.115 0-5.737 2.128-6.507 5.004zm2.216 8.48v-6.742a4.295 4.295 0 0 1 4.29-4.29c.924 0 1.837.305 2.576.858l4.167 3.126 4.167-3.126a4.319 4.319 0 0 1 2.575-.858 4.295 4.295 0 0 1 4.29 4.29v6.742c0 6.084-4.949 11.032-11.032 11.032-6.084 0-11.033-4.948-11.033-11.032zM26.968 44.13c2.207 0 4.288-.544 6.129-1.488v2.206l-6.13 6.13-6.128-6.13v-2.206a13.396 13.396 0 0 0 6.129 1.488zm-7.686 2.628l5.796 5.796-5.86 4.186-1.868-9.338 1.932-.644zm-7.024 19.437V58.84H9.806v7.355H2.452v-9.41a6.12 6.12 0 0 1 4.19-5.814l8.365-2.787 2.55 12.755 9.41-6.722 9.413 6.722 2.55-12.755 2.747.914v17.097H12.258zm31.871 7.354V39.226h22.065v7.355h7.354v26.967H44.13z" fill="#1C1C1C"/><path fill-rule="evenodd" clip-rule="evenodd" d="M41.5 46.455l-5.952-1.984v-.012l-.048.041-2.403.343v.004l-6.13 6.13-5.977-5.978-3.14-.349-11.983 3.996A8.567 8.567 0 0 0 0 56.785v11.86h41.5v-2.451H12.258v-7.355H9.806v7.355H2.452v-9.41a6.12 6.12 0 0 1 4.19-5.814l8.365-2.787 2.55 12.755 9.41-6.722 9.413 6.722 2.55-12.755 2.57.855v-2.583zm-4.914.946l-1.869 9.338-5.86-4.186 5.797-5.796 1.932.644zm-17.304-.644l5.796 5.796-5.86 4.186-1.868-9.338 1.932-.644z" fill="#E21E23"/><path d="M58.839 71.097h12.258V58.839H58.839v12.258zm2.452-9.807h7.354v7.355h-7.354V61.29zM46.58 68.645h9.807v2.452h-9.806v-2.452zm0-4.903h9.807v2.452h-9.806v-2.452zm0-4.903h9.807v2.451h-9.806v-2.45z" fill="#E21E23"/><path d="M46.58 41.677h2.452v2.452h-2.451v-2.452zm4.904 0h12.258v2.452H51.484v-2.452zM46.58 46.58h17.162v2.452H46.58v-2.451zm22.065 4.904h2.452v2.451h-2.452v-2.451zm-22.065 0h19.614v2.451H46.58v-2.451z" fill="#1C1C1C"/></svg>