<svg width="74" height="74" fill="none" xmlns="http://www.w3.org/2000/svg"><path d="M24.776 23.597h7.735a4.712 4.712 0 0 0 2.883 2.193v7.246h-2.36a3.544 3.544 0 0 0-3.539 3.54v3.538h14.158v-3.539a3.544 3.544 0 0 0-3.54-3.54h-2.359V25.79a4.714 4.714 0 0 0 2.883-2.193h7.735v-3.54a5.898 5.898 0 0 0-4.26-5.646l-3.998-1.142v-.315a5.907 5.907 0 0 0 2.36-4.695V6.144c0-3.17-2.361-5.859-5.376-6.12a5.917 5.917 0 0 0-4.51 1.526 5.919 5.919 0 0 0-1.913 4.35v2.36c0 1.844.89 3.586 2.36 4.694v.315l-4 1.142a5.898 5.898 0 0 0-4.259 5.647v3.54zm16.517 12.978v1.18h-9.438v-1.18c0-.65.53-1.18 1.18-1.18h7.079c.65 0 1.18.53 1.18 1.18zm-4.719-12.978a2.362 2.362 0 0 1-2.36-2.36 2.362 2.362 0 0 1 2.36-2.36 2.362 2.362 0 0 1 2.36 2.36 2.362 2.362 0 0 1-2.36 2.36zm-9.438-3.54a3.526 3.526 0 0 1 2.548-3.376l5.71-1.632v-3.403l-.586-.341c-1.11-.647-1.773-1.785-1.773-3.046V5.9c0-.989.419-1.94 1.148-2.609a3.489 3.489 0 0 1 2.712-.915c1.804.156 3.219 1.812 3.219 3.77V8.26c0 1.26-.663 2.4-1.774 3.046l-.586.34v3.404l5.71 1.632a3.526 3.526 0 0 1 2.549 3.377v1.18h-4.72a4.724 4.724 0 0 0-4.719-4.72 4.724 4.724 0 0 0-4.72 4.72h-4.718v-1.18z" fill="#E21E23"/><path d="M68.89 38.008l-4-1.143v-.315a5.906 5.906 0 0 0 2.36-4.694V29.74c0-3.17-2.361-5.858-5.376-6.12a5.931 5.931 0 0 0-4.509 1.526 5.919 5.919 0 0 0-1.914 4.35v2.36c0 1.844.89 3.587 2.36 4.694v.315l-4 1.143a5.83 5.83 0 0 0-1.899.962V28.316H40.114v2.36h9.438V70.79H23.596V30.676h9.439v-2.36H21.237V38.97a5.8 5.8 0 0 0-1.9-.962l-4-1.143v-.315a5.907 5.907 0 0 0 2.36-4.694V29.74c0-3.17-2.36-5.858-5.375-6.12a5.93 5.93 0 0 0-4.51 1.526 5.919 5.919 0 0 0-1.913 4.35v2.36c0 1.844.89 3.587 2.36 4.694v.315l-4 1.143A5.897 5.897 0 0 0 0 43.654v1.18h21.237v17.733a5.799 5.799 0 0 0-1.9-.963l-4-1.142v-.315a5.907 5.907 0 0 0 2.36-4.695v-2.115c0-3.17-2.36-5.859-5.375-6.121a5.921 5.921 0 0 0-4.51 1.526 5.919 5.919 0 0 0-1.913 4.35v2.36c0 1.844.89 3.587 2.36 4.695v.315l-4 1.142A5.897 5.897 0 0 0 0 67.25v1.18h21.237v4.72h30.675v-4.72h21.237v-1.18a5.898 5.898 0 0 0-4.26-5.646l-3.999-1.142v-.315a5.907 5.907 0 0 0 2.36-4.695v-2.115c0-3.17-2.361-5.859-5.376-6.121a5.923 5.923 0 0 0-4.509 1.526 5.919 5.919 0 0 0-1.914 4.35v2.36c0 1.844.89 3.587 2.36 4.695v.315l-4 1.142a5.83 5.83 0 0 0-1.899.963V44.834h21.237v-1.18a5.898 5.898 0 0 0-4.26-5.646zM2.565 42.474a3.523 3.523 0 0 1 2.342-2.196l5.71-1.633v-3.403l-.586-.341c-1.11-.646-1.773-1.785-1.773-3.045v-2.36c0-.99.419-1.94 1.148-2.61a3.508 3.508 0 0 1 2.712-.915c1.804.157 3.219 1.813 3.219 3.77v2.115c0 1.26-.663 2.399-1.774 3.045l-.586.341v3.403l5.71 1.633a3.528 3.528 0 0 1 2.342 2.196H2.566zm0 23.596a3.523 3.523 0 0 1 2.342-2.196l5.71-1.633v-3.403l-.586-.34c-1.11-.647-1.773-1.785-1.773-3.046v-2.36c0-.99.419-1.94 1.148-2.61a3.507 3.507 0 0 1 2.712-.914c1.804.156 3.219 1.812 3.219 3.769v2.115c0 1.26-.663 2.399-1.774 3.045l-.586.341v3.403l5.71 1.633a3.528 3.528 0 0 1 2.342 2.196H2.566zm51.894-2.196l5.71-1.633v-3.403l-.586-.34c-1.11-.647-1.773-1.785-1.773-3.046v-2.36c0-.99.419-1.94 1.149-2.61a3.505 3.505 0 0 1 2.711-.914c1.804.156 3.219 1.812 3.219 3.769v2.115c0 1.26-.663 2.399-1.773 3.045l-.587.341v3.403l5.71 1.633a3.528 3.528 0 0 1 2.342 2.196H52.118a3.523 3.523 0 0 1 2.342-2.196zm-2.342-21.4a3.523 3.523 0 0 1 2.342-2.196l5.71-1.633v-3.403l-.586-.341c-1.11-.646-1.773-1.785-1.773-3.045v-2.36c0-.99.419-1.94 1.149-2.61a3.506 3.506 0 0 1 2.711-.915c1.804.157 3.219 1.813 3.219 3.77v2.115c0 1.26-.663 2.399-1.773 3.045l-.587.341v3.403l5.71 1.633a3.528 3.528 0 0 1 2.342 2.196H52.118z" fill="#1C1C1C"/><path d="M47.193 42.474h-9.439v7.08h9.439v-7.08zm-2.36 4.72h-4.72v-2.36h4.72v2.36zm-9.438-4.72h-9.439v7.08h9.439v-7.08zm-2.36 4.72h-4.72v-2.36h4.72v2.36zm4.719 21.236h9.439v-7.079h-9.439v7.08zm2.36-4.72h4.72v2.36h-4.72v-2.36zm-14.158 4.72h9.439v-7.079h-9.439v7.08zm2.36-4.72h4.719v2.36h-4.72v-2.36z" fill="#E21E23"/></svg>