<svg width="275" height="69" fill="none" xmlns="http://www.w3.org/2000/svg"><path fill-rule="evenodd" clip-rule="evenodd" d="M56.772 8.871c6.274 6.512 9.76 15.195 9.76 24.395H33.266L56.772 8.871z" fill="red"/><path fill-rule="evenodd" clip-rule="evenodd" d="M35.484 0c8.645 0 16.539 3.785 22.177 9.76L35.484 33.267V0z" fill="#B0000B"/><path fill-rule="evenodd" clip-rule="evenodd" d="M0 0h35.484v33.266L0 0z" fill="red"/><path fill-rule="evenodd" clip-rule="evenodd" d="M0 19.123V0l35.484 33.266H15.147L0 19.123zm56.772 40.756c6.274-7.104 9.76-16.577 9.76-26.613H33.266L56.772 59.88z" fill="#B0000B"/><path fill-rule="evenodd" clip-rule="evenodd" d="M35.484 68.75c8.645 0 16.539-4.037 22.177-10.411L35.484 33.266V68.75z" fill="#DE0007"/><path fill-rule="evenodd" clip-rule="evenodd" d="M0 68.75h35.484V33.266L0 68.75z" fill="red"/><path fill-rule="evenodd" clip-rule="evenodd" d="M0 48.413V68.75l35.484-35.484H15.147L0 48.413z" fill="#DE0007"/><path fill-rule="evenodd" clip-rule="evenodd" d="M25.614 34.601l3.714-3.785-7.819-7.97H9l11.532 11.755h5.082zm8.6-8.666L30.5 29.721l-7.916-7.97V9l11.63 11.755v5.18zm.001 19.027L30.5 41.176l-7.916 7.97v12.75l11.63-11.754v-5.18zm-8.601-8.666l3.714 3.785-7.819 7.97H9l11.532-11.755h5.082zm18.765-.001l-3.714 3.786 7.818 7.97h12.412L49.363 36.294h-4.984zm-8.601 8.667l3.713-3.786 7.819 7.97v12.75L35.778 50.143v-5.18zm0-19.027l3.714 3.786 7.818-7.97V9L35.778 20.755v5.18zm8.601 8.666l-3.714-3.785 7.818-7.97h12.412L49.363 34.601h-4.984z" fill="#fff"/><path fill-rule="evenodd" clip-rule="evenodd" d="M90.954 25.19c1.324 0 2.295-.265 3-.794.707-.53 1.06-1.236 1.06-2.207 0-1.942-1.324-2.913-3.972-2.913H86.01v5.914h4.944zM80.89 7.006h17.654v4.06H85.922v4.503h6.09c2.649 0 4.68.53 6.091 1.677 1.413 1.147 2.119 2.736 2.119 4.767 0 2.206-.794 3.883-2.295 5.12-1.5 1.235-3.708 1.853-6.532 1.853H80.979V7.006h-.088zm37.605 12.534v-3.089c0-1.853-.442-3.177-1.324-4.148-.883-.971-2.119-1.413-3.619-1.413-1.589 0-2.825.442-3.708 1.413-.883.97-1.324 2.295-1.324 4.148v3.09h9.975zm.353-11.74c1.501.795 2.648 1.943 3.531 3.532.794 1.588 1.236 3.442 1.236 5.56v12.006h-5.032V23.6h-9.975v5.297h-5.031V16.893c0-2.207.441-4.06 1.236-5.561a8.505 8.505 0 0 1 3.531-3.531c1.5-.795 3.266-1.148 5.296-1.148 1.942 0 3.707.353 5.208 1.148zm29.923-.794v21.892h-5.032v-9.004h-9.974v9.004h-5.032V7.006h5.032v8.65h9.974v-8.65h5.032zm13.683 13.064h-3.443v8.828h-5.031V7.006h5.031v8.827h3.619l5.738-8.827h5.296l-7.15 10.593 7.415 11.299h-5.738l-5.737-8.828zM95.809 58.28v-8.65c0-1.678-.442-3.002-1.325-3.885-.882-.882-2.118-1.324-3.619-1.324-1.5 0-2.736.442-3.619 1.324-.882.883-1.324 2.207-1.324 3.884v8.651h9.887zm7.768 0v8.65h-4.679v-4.5H82.921v4.502h-4.678V58.28h2.648v-8.21c0-2.118.441-3.883 1.235-5.384a7.641 7.641 0 0 1 3.531-3.354c1.501-.795 3.266-1.148 5.297-1.148 2.03 0 3.795.353 5.296 1.148 1.5.794 2.648 1.942 3.53 3.354.795 1.5 1.237 3.266 1.237 5.385v8.209h2.56zm18.448-5.206v-3.09c0-1.854-.442-3.178-1.324-4.149-.883-.97-2.119-1.412-3.619-1.412-1.589 0-2.825.441-3.708 1.412-.883.971-1.324 2.295-1.324 4.149v3.09h9.975zm.353-11.829c1.5.794 2.648 1.942 3.531 3.53.794 1.59 1.236 3.444 1.236 5.562v12.005h-5.032v-5.296h-9.975v5.296h-5.031V50.337c0-2.207.441-4.06 1.236-5.561a8.508 8.508 0 0 1 3.53-3.53c1.501-.795 3.267-1.149 5.297-1.149 1.942 0 3.707.354 5.208 1.148zm19.949 17.39c1.324 0 2.295-.265 3.002-.795.706-.53 1.059-1.236 1.059-2.207 0-1.942-1.324-2.913-3.972-2.913h-5.032v5.915h4.943zM132.264 40.45h17.655v4.06h-12.623v4.502h6.091c2.648 0 4.678.53 6.09 1.677 1.413 1.148 2.119 2.736 2.119 4.767 0 2.207-.795 3.884-2.295 5.12-1.589 1.235-3.708 1.853-6.532 1.853h-10.505V40.45zm35.662 11.652c.794-.706 1.236-1.854 1.236-3.178 0-1.412-.442-2.471-1.236-3.266-.794-.794-1.942-1.148-3.354-1.148-1.501 0-2.648.442-3.443 1.325-.794.882-1.236 2.03-1.236 3.619v2.471a7.932 7.932 0 0 0 2.119 1.06c.794.264 1.589.353 2.471.353 1.501-.177 2.649-.53 3.443-1.236zm3.707-9.622c1.678 1.5 2.56 3.62 2.56 6.356 0 2.56-.794 4.59-2.295 6.002-1.589 1.501-3.707 2.207-6.532 2.207-.883 0-1.854-.088-2.648-.265-.883-.176-1.765-.53-2.825-.97v6.532h-5.031V49.365c0-2.913.794-5.208 2.471-6.797 1.678-1.588 3.973-2.383 7.15-2.383 3.002 0 5.473.795 7.15 2.295zm21.01 10.506v-3.09c0-1.854-.442-3.178-1.324-4.149-.883-.97-2.119-1.412-3.62-1.412-1.588 0-2.824.441-3.707 1.412-.883.971-1.324 2.295-1.324 4.149v3.09h9.975zm.353-11.74c1.5.794 2.648 1.941 3.531 3.53.794 1.59 1.235 3.443 1.235 5.561v12.005h-5.031v-5.296h-9.975v5.296h-5.031V50.337c0-2.206.441-4.06 1.236-5.56a8.509 8.509 0 0 1 3.53-3.532c1.501-.794 3.266-1.147 5.297-1.147a10.075 10.075 0 0 1 5.208 1.147zm19.949 17.3c1.324 0 2.295-.264 3.001-.794.707-.53 1.06-1.236 1.06-2.207 0-1.942-1.324-2.913-3.973-2.913h-5.031v5.914h4.943zm-10.063-18.095h17.655v4.06h-12.623v4.502h6.09c2.649 0 4.679.53 6.091 1.677 1.413 1.148 2.119 2.736 2.119 4.767 0 2.207-.795 3.884-2.295 5.12-1.589 1.235-3.708 1.853-6.532 1.853h-10.505V40.45zm49.697 21.891h-5.031V40.451h5.031v21.891zm-14.035-4.59c.795-.706 1.148-1.677 1.148-2.913 0-1.236-.442-2.295-1.236-2.913-.883-.706-1.942-1.06-3.355-1.06-.794 0-1.588.089-2.383.354-.794.265-1.589.618-2.207 1.059v2.119c0 1.412.442 2.471 1.236 3.266.795.794 1.942 1.147 3.443 1.147 1.412 0 2.56-.353 3.354-1.06zm3.972-8.739c1.501 1.324 2.295 3.266 2.295 5.65 0 2.56-.882 4.501-2.559 5.914-1.678 1.412-4.149 2.118-7.327 2.118-3.09 0-5.473-.706-7.062-2.118-1.589-1.413-2.383-3.443-2.383-6.18V40.363h5.031v7.856c1.942-.882 3.884-1.324 5.826-1.324 2.56.089 4.679.795 6.179 2.119zM275 44.511h-7.062v17.831h-4.943v-17.83h-6.974V40.45H275v4.06z" fill="#645F5B"/></svg>