<svg width="374" height="512" fill="none" xmlns="http://www.w3.org/2000/svg"><path d="M139.323 300.146c-22.446-20.368-47.377-53.293-40.434-85.161 6.471-29.706 24.216-32.02 48.761-20.964 18.389 8.284 20.944 22.576 24.855 39.85 2.15 9.498.516-6.158.995-9.089 2.423-14.819 1.825-30.921 6.143-45.398 8.398-28.15 18.641-65.504 35.977-89.907 13.582-19.118 26.636-17.33 46.363-14.545 18.754 2.649 12.853 33.034 12.14 47.136-1.126 22.258-10.285 40.758-18.798 61.027-2.732 6.506-7.565 20.005 3.894 16.193 13.423-4.467 24.239 5.95 19.123 18.131-4.115 9.797-17.789 17.628-28.597 16.807-9.975-.759-15.548 18.275-18.624 25.599-7.283 17.343-12.22 35.463-19.416 52.598-4.726 11.251-7.608 19.426-19.748 24.385-11.705 4.781-22.902-2.785-33.501-7.237-12.922-5.427-22.27-6.602-21.996-22.606m-36.502-34.046c5.394 5.09 8.84 10.781 12.318 2.5m-46.82-73.138c13.544 6.69 24.192 18.181 38.047 24m-7.229-59.184c2.88 17.305 5.791 33.685 14.274 48.774m16.637 17.682c1.338 7.405 3.053 10.404 6.592 16.137m3.044-70.911c-1.101 11.731-2.621 18.932.864 29.774m31.365 39.909c-1.761 7.333-3.4 14.462-6.318 21.41m11.135-115.64c4.541 7.842 6.78 12.186 14.365 16.728m2.907-89.685c-.129 4.242 2.953 41.058 9.001 35.864m36.637-80.866c-3.633 14.533-7.605 24.396-2.954 38.864m2.91 44.002a465.307 465.307 0 0 1-4.409 16.864m46.682-79.321l-12.409 29.546m20.592 27.364c-9.977 16.796-23.883 30.564-33.319 47.502m-35 38.775c-4.147 14.907-8.267 28.571-10.364 43.775m65.956-55.185c-4.483 10.092-8.738 15.394-17.318 22.137m4.909 7.409c8.459 7.307 15.595 6.55 25.001 10.5m-93.82 51.503c-.711 14.54-5.32 27.645-9.409 41.502m27.227-39.365c8.683-.064 17.377-3.981 25.229-2.774m-30.455 40.684c7.983-2.375 15.814-4.249 23.91-6" stroke="#fff" stroke-width="5" stroke-linecap="round" stroke-linejoin="round"/><path d="M139.323 300.146c-14.79 1.37-44.712-8.13-52.153 9.587-9.296 22.134 91.969 42.111 106.125 45.462 14.205 3.363 59.158 27.923 66.672 1.115 4.195-14.968-45.856-35.449-57.733-40.437" stroke="#fff" stroke-width="5" stroke-linecap="round" stroke-linejoin="round"/><path d="M86.958 310.238c-3.696 17.391-5.523 38.616-12.333 54.831-2.69 6.402 13.516 9.835 18.087 11.755 15.755 6.617 32.129 10.82 47.799 17.401l21.213 8.909c9.741 4.091 19.995 3.537 29.688 7.121 8.055 2.979 41.766 16.561 46.719 4.767 3.518-8.377 5.007-18.288 8.863-27.471 5.013-11.935 13-26.529.833-33.814M88.096 377.559c-7.567 26.262-17.873 58.639 5.049 80.995 11.931 11.636 38.922 30.054 57.083 27.836 7.491-.915 21.697-12.923 26.104-18.299 5.098-6.22 10.918-8.313 14.162-16.036l10.288-24.496" stroke="#fff" stroke-width="5" stroke-linecap="round" stroke-linejoin="round"/></svg>