<svg width="691" height="710" fill="none" xmlns="http://www.w3.org/2000/svg"><path d="M174.102 372.665c-1.285-36.604 1.531-79.635 41.467-90.336 35.345-9.471 56.621 36.243 64.343 65.065 6.112 22.808-12.296 23.981-30.675 28.906-21.483 5.756-45.292-6.378-63.1-18.743m190.003-36.188c-2.541-30.246 4.664-63.073 34.488-80.936 22.485-13.467 40.736 18.184 52.208 31.97 31.17 37.457-49.24 49.96-72.662 56.236m19.605-56.792c17.776 41.349 19.938 10.023-1.008-3.759" stroke="#FFEC43" stroke-width="10" stroke-linecap="round" stroke-linejoin="round"/><path d="M229.677 325.458c-2.795 7.38-11.745 20.463-2.65 25.281 4.724 2.502 14.333 1.829 14.542-3.897.384-10.549-8.832-11.224-17.095-16.452m103.08 54.753c11.349-1.773 55.622-22.533 53.93-7.039-1.094 10.02-.815 28.861-11.618 31.756-17.05 4.568-36.913-4.565-41.411-21.353" stroke="#FFEC43" stroke-width="10" stroke-linecap="round" stroke-linejoin="round"/><path d="M361.94 411.981c6.199 23.135 17.384 49.948 15.034 72.608-1.568 15.127-5.629 28.997-16.197 37.05-14.741 11.234-17.741 17.371 1.279 12.275m19.535-52.144c9.014 3.476 58.977 42.542 59.596 12.336M190.399 223.402c4.395-15.194 52.891-96.722 62.186-62.031 5.76 21.496.039 5.988 13.205-.554 3.569-1.773 4.66 9.942 6.143 11.487 4.858 5.063 28.815-13.072 32.876-15.375 21.997-12.476 36.27-16.053 59.561-19.542m1.482 5.528c29.385-44.263 57.078-84.196 96.13-120.894 13.954-13.113 12.663 3.845 14.382 17.412 4.784 37.757 36.516 147.819 26.663 111.048M188.7 217.056c-44.778 11.998-85.488-.455-131.376-5.507-9.526-1.049-53.952-5.742-31.313 12.964 30.183 24.94 47.53 58.961 72.031 88.876 7.336 8.957 29.298 39.492 42.854 35.859" stroke="#FFEC43" stroke-width="10" stroke-linecap="round" stroke-linejoin="round"/><path d="M131.08 375.493c-18.276 38.384-30.841 75.95-33.333 118.575-.983 16.821 3.333 43.068 21.218 16.992 12.914-18.829 6.962-8.083 5.82 10.109-.627 9.979-2.417 30.88 4.737 39.242 4.006 4.681 19.563-7.704 24.603-7.694 17.331.037 20.97 33.567 28.746 44.258 11.129 15.301 37.117 5.632 53.175 17.676 19.902 14.925 48.081 19.555 72.429 24.846 29.221 6.35 54.165 6.843 83.289-.961 30.645-8.211 50.766-15.24 73.699-37.581 14.24-13.873 24.449-31.11 34.111-47.669 9.611-16.472 15.876-34.681 36.421-24.951 22.712 10.756 11.242-31.199 19.359-38.873 6.285-5.941 15.163-1.161 20.621-5.966 8.196-7.213 4.816-37.753 4.971-47.787.444-28.598 25.734-5.073 27.035-33.444.922-20.092-4.39-38.537-5.435-58.429-.486-9.27 13.718-1.408 15.98-6.704 7.239-16.945-15.208-68.436-26.412-80.329-7.371-7.824-9.957-18.556-18.017-25.776-10.596-9.492-22.31-17.707-33.02-27.039-17.976-15.663-29.741-33.241-31.219-56.805M435.2 401.733c33.91-31.893 70.354-59.175 108.474-85.357m-88.623 89.419c29.307-2.23 56.599.217 85.817 5.151m-85.186 32.21c19.328 13.827 33.811 25.993 55.494 32.039M251.38 450.988c-29.923 1.302-64.868.143-87.534 23.455m94.572 2.807c-25.516 20.631-42.456 42.468-55.954 71.283m82.842-40.962c-4.643 12.577-11.917 25.55-8.125 39.704" stroke="#FFEC43" stroke-width="10" stroke-linecap="round" stroke-linejoin="round"/><path d="M442.989 80.665c-8.77 22.629-18.009 47.142-17.064 74.567.578 16.766 15.009-8.065 17.951-9.587 1.916-.992 12.681 28.192 18.814 32.942m-363.889 88.12c23.93-1.612 45.738 3.188 67.1 17.138 9.102 5.944 3.845 13.107-3.708 15.131-6.828 1.83-15.559 2.602-21.861 6.086-9.099 5.029-1.054 14.575 5.763 14.646" stroke="#FFEC43" stroke-width="10" stroke-linecap="round" stroke-linejoin="round"/></svg>