<svg width="318" height="444" fill="none" xmlns="http://www.w3.org/2000/svg"><path d="M109.065 233.544c-.805-22.93.959-49.887 25.977-56.59 22.142-5.933 35.469 22.704 40.307 40.759 3.829 14.288-7.703 15.023-19.216 18.108-13.458 3.606-28.373-3.995-39.529-11.741m119.027-22.669c-1.592-18.948 2.921-39.512 21.605-50.702 14.085-8.437 25.518 11.391 32.705 20.027 19.526 23.464-30.846 31.297-45.519 35.229m12.281-35.577c11.136 25.902 12.49 6.279-.631-2.355" stroke="#FAFAFA" stroke-width="5" stroke-linecap="round" stroke-linejoin="round"/><path d="M143.88 203.972c-1.751 4.623-7.357 12.819-1.66 15.837 2.959 1.568 8.979 1.146 9.109-2.441.241-6.609-5.532-7.031-10.708-10.307m64.573 34.3c7.11-1.11 34.844-14.115 33.785-4.41-.686 6.278-.511 18.08-7.279 19.894-10.681 2.862-23.123-2.86-25.941-13.377" stroke="#FAFAFA" stroke-width="5" stroke-linecap="round" stroke-linejoin="round"/><path d="M226.735 258.174c3.884 14.492 10.89 31.29 9.418 45.485-.982 9.476-3.526 18.165-10.146 23.21-9.234 7.037-11.114 10.881.801 7.689m12.237-32.665c5.647 2.177 36.947 26.65 37.334 7.727M119.274 140.039c2.753-9.518 33.133-60.59 38.956-38.859 3.608 13.466.024 3.751 8.272-.347 2.236-1.11 2.92 6.228 3.848 7.196 3.043 3.172 18.051-8.189 20.595-9.632 13.78-7.815 22.721-10.056 37.312-12.241m.928 3.463c18.409-27.729 35.757-52.745 60.221-75.734 8.741-8.214 7.932 2.409 9.009 10.908 2.997 23.653 22.876 92.601 16.703 69.565M118.21 136.064c-28.051 7.516-53.554-.285-82.3-3.45-5.968-.657-33.798-3.597-19.616 8.121 18.908 15.624 29.776 36.936 45.124 55.676 4.595 5.611 18.353 24.74 26.845 22.464" stroke="#FAFAFA" stroke-width="5" stroke-linecap="round" stroke-linejoin="round"/><path d="M82.114 235.316c-11.448 24.045-19.32 47.578-20.88 74.28-.617 10.538 2.087 26.98 13.291 10.645 8.09-11.795 4.361-5.064 3.646 6.333-.393 6.251-1.514 19.344 2.967 24.582 2.51 2.933 12.256-4.826 15.413-4.819 10.856.023 13.136 21.028 18.007 27.725 6.972 9.586 23.252 3.528 33.312 11.073 12.467 9.35 30.119 12.25 45.372 15.565 18.305 3.977 33.931 4.286 52.176-.602 19.198-5.144 31.802-9.547 46.169-23.543 8.92-8.69 15.315-19.488 21.368-29.862 6.021-10.319 9.945-21.725 22.816-15.63 14.228 6.738 7.042-19.545 12.127-24.352 3.937-3.722 9.499-.727 12.918-3.737 5.134-4.519 3.017-23.65 3.115-29.936.278-17.915 16.12-3.178 16.935-20.951.578-12.587-2.75-24.141-3.404-36.603-.305-5.806 8.593-.882 10.01-4.199 4.535-10.616-9.527-42.871-16.546-50.322-4.617-4.901-6.237-11.624-11.286-16.147-6.638-5.946-13.976-11.093-20.686-16.939-11.261-9.812-18.631-20.823-19.557-35.584m-46.769 159.461c21.243-19.98 44.074-37.07 67.954-53.471m-55.518 56.015c18.359-1.397 35.456.136 53.76 3.227m-53.365 20.178c12.108 8.662 21.181 16.283 34.764 20.071M157.475 282.61c-18.745.815-40.636.089-54.835 14.693m59.244 1.758c-15.984 12.924-26.596 26.604-35.052 44.655m51.896-25.661c-2.909 7.879-7.465 16.006-5.089 24.873" stroke="#FAFAFA" stroke-width="5" stroke-linecap="round" stroke-linejoin="round"/><path d="M277.508 50.623c-5.494 14.176-11.282 29.532-10.69 46.712.362 10.503 9.403-5.052 11.245-6.006 1.201-.621 7.945 17.661 11.787 20.636M61.893 167.168c14.99-1.011 28.652 1.997 42.034 10.735 5.702 3.724 2.409 8.212-2.323 9.479-4.277 1.147-9.746 1.631-13.694 3.813-5.7 3.151-.66 9.13 3.61 9.175" stroke="#FAFAFA" stroke-width="5" stroke-linecap="round" stroke-linejoin="round"/></svg>