<svg width="138" height="142" fill="none" xmlns="http://www.w3.org/2000/svg"><path d="M38.59 31.492c2.187-8.163 5.61-21.936 17-19.242 6.731 1.591 11.86 2.486 15.072 8.83 2.295 4.534 3.985 8.457 2.65 13.436-1.22 4.555.207 12.22 3.19 15.728 3.374 3.97 14.066 6.84 19.356 6.344 13.424-1.262 21.343-3.503 29.746-14.01 3.701-4.627 2.442 5.371 2.574 6.97.502 6.082-1.581 12.654-3.146 18.493-2.513 9.38-5.69 13.97-11.047 21.581-3.331 4.733-16.62 11.255-22.322 11.785-7.687.714-12.903 1.831-20.584-.227-15.793-4.232-25.744-8.338-29.742-24.992C38.483 64.3 45.315 41.114 26.155 42.29c-2.138.132-7.689.718-9.495-.478-3.8-2.516 3.157-4.513 4.318-5.371 1.65-1.22 5.614-2.822 7.671-3.15 3.239-.517 4.557-3.308 7.55-3.927m9.997-3.18c2.766 9.888 2.637.013-1.553 5.796m19.231 67.27c-3.267 12.193-2.508 12.654-15.08 13.351-1.08.06-15.883.092-10.243 1.604m19.522-.981c-6.11 2.986-8.856 6.006-10.644 12.677m10.713-12.659c-1.826 6.814-3.945 11.659-1.83 18.145m26.136-25.09c-1.99 4.711-3.172 8.877-3.732 13.928-.108.981.442 4.919-.358 5.658-2.888 2.669-5.752 4.549-8.971 6.937m10.574-8.554c.05 5.886 4.32 9.491 4.363 14.627m-5.139-11.73c6.493-.787 14.121-1.274 20.423-2.81" stroke="#FFEC43" stroke-width="5" stroke-linecap="round" stroke-linejoin="round"/></svg>