<svg width="222" height="176" fill="none" xmlns="http://www.w3.org/2000/svg"><path d="M5.009 137.911C.23 112.828 13.36 97.875 24.69 76.054c7.476-14.398 28.33-22.2 43.581-23.373 24.258-1.866 42.474 8.25 65.724 12.477 6.148 1.118 7.03 4.621 7.03 10.368 0 7.025 6.95-12.374 8.786-19.154 3.733-13.782 12.424-41.436 22.143-52.369.19-.214.703 9.505.703 10.544v27.239c0 2.718-2.899 34.519 1.757 35.85 3.91 1.116 8.429-.882 12.301.526 6.814 2.478 13.304 10.905 19.682 14.762 33.224 20.089-19.723 9.498-32.335 7.205-3.443-.626-21.524-2.005-23.196 1.757-7.539 16.963-5.067 41.511-24.251 51.841-24.904 13.41-52.445 22.782-80.31 15.816-9.066-2.266-8.27-12.652-20.736-12.652-8.514 0-11.446-9.49-20.561-9.49m22.143-69.59c37.743.878 50.611 35.519 50.611 69.591m-63.264-37.959c25.065 4.386 6.327-7.953 6.327 3.163" stroke="#fff" stroke-width="8" stroke-linecap="round" stroke-linejoin="round"/></svg>