<svg width="78" height="124" fill="none" xmlns="http://www.w3.org/2000/svg"><path d="M28.813 22.509c-.953 4.86-5.169 13.272 3.425 13.702 3.881.194 7.465-2.23 7.708-6.47.211-3.7-.343-7.912-4.948-8.089-6.1-.234-9.61 3.09-9.61 9.42" stroke="#fff" stroke-width="3" stroke-linecap="round" stroke-linejoin="round"/><path d="M34.807 22.509c-1.271-9.22 1.388-18.03 12.323-17.08 8.377.728 6.474 14.457 1.712 17.984-1.563 1.158-5.865 5.566-7.85 5.566-3.008 0 5.747-2.188 8.754-2.188 8.354 0 15.035 3.918 15.035 13.036 0 6.79-4.796 8.744-10.705 9.182-4.3.318-7.748-2.134-10.657-5.043-1.362-1.362-3.473-6.54-3.473-4.615 0 6.136 2.569 12.198 2.569 18.364 0 4.1-.467 4.4-3.95 5.947-2.775 1.234-6.71 2.45-9.8 1.523-4.85-1.455-7.512-10.486-7.66-14.987-.1-3.064-.235-7.145 1.428-9.896 1.58-2.612 4.074-1.91 1.332-.856-5.869 2.257-12.287 4.73-18.936 3.52-5.17-.94-2.392-11.589-.047-14.13 4.096-4.437 7.166-6.893 13.94-5.661 1.952.355 3.088.778 4.852 1.713.846.447-3.427-1.023-4.281-1.713-5.3-4.28-7.201-12.255-3.616-18.46 4.85-8.393 15.982 4.962 19.03 9.23m6.851 31.686c16.367 21.368 14.559 50.766 14.559 76.217" stroke="#fff" stroke-width="3" stroke-linecap="round" stroke-linejoin="round"/><path d="M58.786 116.71c-5.21-11.596.004-22.67 7.327-32.352 1.597-2.112 9.8-14.054 9.8-6.565 0 5.744.927 12.34-.951 17.84-1.764 5.167-6.754 8.658-11.038 11.657" stroke="#fff" stroke-width="3" stroke-linecap="round" stroke-linejoin="round"/><path d="M55.36 118.423c-14.053-.238-28.182-8.418-27.404-23.979.243-4.846 6.73-.91 9.183-.38 5.045 1.088 10.595 2.589 14.606 6.042 4.247 3.658 4.643 9.753 5.328 14.891" stroke="#fff" stroke-width="3" stroke-linecap="round" stroke-linejoin="round"/></svg>