<svg width="379" height="383" fill="none" xmlns="http://www.w3.org/2000/svg"><path d="M159.627 95.492c-11.828 21.46-30.415 38.431-45.083 57.992-6.527 8.704-17.195 16.233-22.832 25.131-1.271 2.007 20.686-.239 22.413-.244 18.252-.049 39.473 1.584 57.238 5.489 5.297 1.164 15.87 5.162 20.457-.011.231-.26-9.107-18.732-9.815-20.621-4.891-13.057-9.47-28.811-16.979-40.533-2.841-4.435-6.359-7-7.467-12.417-.589-2.878-.353-5.008-1.653-7.261" stroke="#00B269" stroke-width="3" stroke-linecap="round" stroke-linejoin="round"/><path d="M154.742 101.001c19.613-1.451 39.726-2.81 58.703-7.754 10.425-2.716 6.884 5.353 9.024 12.266 3.951 12.767 7.929 26.099 14.495 37.783 2.656 4.726 8.916 20.567 14.879 22.926 15.704 6.212-17.907 9.286-21.587 9.177-6.839-.203-15.764.887-22.451 2.506-3.317.804-8.939-1.263-10.842.883m-87.922 3.713c-5.891 15.583-8.064 30.83-8.276 47.496-.024 1.945-.574 38.681 3.181 35.131 15.669-14.814 36.399-15.429 56.785-18.969 10.882-1.89 25.493-.083 18.185-12.74-7.982-13.826-5.973-27.422-5.723-42.251" stroke="#00B269" stroke-width="3" stroke-linecap="round" stroke-linejoin="round"/><path d="M178.329 241.973c20.605-1.439 40.968-11.389 61.364-15.563 1.663-.34 18.537-3.257 17.693-4.539-4.24-6.439-7.102-13.074-8.837-20.738-2.07-9.141-.961-20.471-7.993-26.005M184.364 73.145L179.44 91.52c-1.17 4.365-2.025 4.992 2.565 3.15" stroke="#00B269" stroke-width="3" stroke-linecap="round" stroke-linejoin="round"/><path d="M183.511 76.325c3.211-1.33 12.467-6.514 16.327-5.094.9.33-2.923 12.32-3.221 13.435-.906 3.38-4.595 11.015-1.89 13.413m-4.938-38.821c1.821-6.796 2.341-17.514 10.64-19.212 6.581-1.347 15.049-.585 17.974 6.426.882 2.114-.592 9.024.659 5.669 3.3-8.854 16.969-13.484 25.369-8.448 4.277 2.564 1.468 9.715.508 13.298-.876 3.27 4.216-4.39 7.613-5.44 10.477-3.243 31.751-.11 18.996 14.274-3.017 3.403-4.31 2.267-2.832-1.8 2.095-5.765 7.478-8.192 13.473-8.227 4.557-.026 15.285 1.56 15.244 7.778-.025 3.798-5.121 11.518-1.329 7.788 7.522-7.401 23.95-8.456 20.35 4.979-.39 1.457 1.064-2.961 2.197-3.957 4.094-3.598 11.271-1.932 16.039-1.194 8.88 1.374 9.208 3.84 8.847 12.218M125.538 222.714c-2.162 8.066-2.664 16.304-4.802 24.281" stroke="#00B269" stroke-width="3" stroke-linecap="round" stroke-linejoin="round"/><path d="M121.931 223.453c2.352-1.68 30.17-12.94 28.427-4.315-1.559 7.716-3.556 17.125.396 23.969m-14.419-92.495c-5.185 5.231-11.975 13.835-1.081 16.755 6.616 1.772 9.732-.704 12.194-7.339 4.075-10.985 6.294-9.164-2.018-17.206-7.05-6.821-15.071 5.004-18.325 10.43m58.696 48.112c-1.3 3.287-6.496 14.596-.727 16.85 4.242 1.657 10.15-2.517 14.556-2.728 4.747-.228 11.6.985 9.504-5.787-.837-2.705-5.065-14.571-7.002-12.387-3.512 3.961-12.369 5.3-17.183 7.233m37.771-13.742c-2.3 5.456-9.936 15.178-1.081 16.755 3.819.68 6.013-2.299 9.46-3.146 1.421-.35 7.837 1.497 8.231.027 1.156-4.312-2.116-8.39-1.581-12.828.329-2.734-12.001 2.024-14.291 2.799m29.675 16.473c1.187-4.431 2.348-17.338 5.94-20.755 1.261-1.2 9.638 9.644 11.135 10.748 1.266.934 7.082 8.222 8.172 4.841 1.789-5.554 2.331-11.713 1.27-17.462-2.826-15.299 11.529 8.732 15.504 12.109 2.875 2.442 5.227-22.106 6.954-25.598.745-1.508 13.325 28.94 15.988 21.613 1.961-5.396 1.774-11.924 3.291-17.583 2.715-10.134-.91-2.374.587 2.051.647 1.914 5.819 13.432 9.083 11.335 3.967-2.549 2.786-13.663 5.224-17.729 1.014-1.691 3.616 10.691 4.345 12.054 2.016 3.767 2.96 7.985 6.593 10.384m-249.516 66.09c-1.354-2.282-11.655-20.828-16.641-17.053-3.45 2.611-4.121 11.847-5.169 15.755-.784 2.928-3.03 15.102-3.37 14.342-3.15-7.047-5.8-15.843-10.254-22.159-3.96-5.615-6.776 7.203-6.763 8.982.009 1.166 5.275 17.307 1.984 16.629-7.97-1.64-16.628-37.938-19.957-13.869-.916 6.621 2.661 12.52 1.497 19.15-.538 3.065 2.022 5.831-1.202.246-3.968-6.873-8.364-13.605-12.125-20.483-3.261-5.966-6.591 10.635-6.037 13.344 1.05 5.132.13 12.578 1.665 17.112 2.23 6.591-4.517-13.256-7.996-19.282-4.418-7.652-5.913 11.334-5.701 13.15.613 5.269.085 14.399 3.479 17.408" stroke="#00B269" stroke-width="3" stroke-linecap="round" stroke-linejoin="round"/></svg>