<svg width="69" height="80" fill="none" xmlns="http://www.w3.org/2000/svg"><path d="M32.403 32.403c-9.475 11.912-17.78 25.66-14.56 41.76 1.836 9.185 16.335-5.41 17.88-7.396 8.245-10.601 17.174-20.66 14.27-35.18-.598-2.99-3.442-5.531-6.524-5.474-9.25.171-14 10.315-18.405 16.774" stroke="#00B269" stroke-width="4" stroke-linecap="round" stroke-linejoin="round"/><path d="M28.21 38.694c-3.754-3.024-7.558-6.385-9.203-11.067-.656-1.867-1.466-1.514-3.378-1.514m3.145 17.822c-6.216.113-11.797.212-16.774 4.194m13.63 10.484C11.031 61.12 5.045 60.957 3.047 65.95m47.179-15.724c3.13-.864 8.971-3.61 11.532-1.049M41.839 61.758c2.264 4.354 4.888 10.307 9.435 12.58m-7.339-15.725c7.177.143 8.684 2.334 13.63 6.29M46.032 31.355c-4.142 6.15-7.26 13.031-11.765 18.87-2.053 2.662-3.576 7.02-6.057 8.97-3.986 3.132-7.295 8.765-9.436 13.047" stroke="#00B269" stroke-width="4" stroke-linecap="round" stroke-linejoin="round"/><path d="M40.79 27.161c1.625-3.591 10.484-13.67 10.484-3.96 0 1.402-2.505 12.58-4.193 9.202m-2.097-13.629c0-7.438.332-11.163 5.242-16.774m1.048 23.064c5.894-.321 13.284-1.234 15.726-7.338" stroke="#00B269" stroke-width="4" stroke-linecap="round" stroke-linejoin="round"/></svg>