<svg width="413" height="349" fill="none" xmlns="http://www.w3.org/2000/svg"><path d="M316.754 7.31c-4.422 30.692-18.656 60.483-31.967 88.16-1.53 3.18-11.236 27.53-15.098 15.055-2.422-7.822-20.385-5.842-25.01-1.059-4.085 4.225-8.405 6.171-10.267 11.866-2.185 6.679-1.574 12.711-.836 19.445 1.162 10.602 2.829 15.863 15.232 13.065 2.729-.615 9.703-4.914 7.925-2.755-3.27 3.973-3.099 6.951-5.242 11.422-6.403 13.363-.226 46.71 19.881 40.516 8.165-2.515 11.578-10.509 14.848-17.334 2.233-4.661-.583-15.647 2.556-3.934 2.115 7.894 5.629 21.174 16.721 18.622 11.251-2.588 16.246-12.284 17.277-23.761.733-8.148-1.482-25.94-9.917-28.928-3.446-1.221 7.236-18.728 8.948-21.168C331.3 112.983 336.832 97.393 344.797 83c5.88-10.626 2.491-27.74 11.827-36.017M44.525 137.107c10.804-6.923 18.358-.436 29.661 2.25 9.13 2.17 18.17 1.574 27.127 4.915 3.03 1.13 22.629 11.45 22.556 9.748-.704-16.298 43.678-20.619 42.526 2.774-.366 7.435-5.415 13.872-12.503 15.984-10.888 3.244.877 4.918 6.31 8.056 3.759 2.17 4.907 4.545 6.782 8.47 1.566 3.279 4.885 6.103 6.075 9.201 2.047 5.33-.344 13.809-4.168 17.451-6.215 5.921-14.408 7.985-23.066 5.188-4.256-1.375-8.161-3.821-9.527-8.276-1.409-4.594-.681-2.542.18.673l5.505 20.545c2.175 8.115-11.764 10.124-17.349 10.695-9.202.941-18.103-3.574-20.645-13.059-1.234-4.605-.652-13.204-3.22-16.734-2.293-3.152-8.447-1.701-11.71-2.277-9.216-1.628-17.523-4.217-26.321-7.296-7.522-2.632-15.234-6.903-22.96-8.558-5.09-1.091-8.322-6.004-13.788-7.676" stroke="#FFB6B6" stroke-width="6" stroke-linecap="round" stroke-linejoin="round"/><path d="M136.526 244.03c19.427 7.381 37.803 17.214 53.716 30.729 10.585 8.989 23.173 17.888 36.989 20.501 3.026.572 10.587 7.593 12.659 7.166 2.681-.551 6.478-11.324 7.76-13.811 4.22-8.185 5.062-17.962 9.313-25.868 2.582-4.803 2.434-10.272 4.288-15.317 1.671-4.546 4.825-8.666 6.756-13.181 4.003-9.359 6.979-23.528 6.327-33.642M70.507 143.14c-1.704-19.512.806-35.174 17.096-48.349 7.065-5.713 18.54-2.786 26.877-2.418 10.031.442 16.465 2.388 24.967 7.297 8.472 4.891 19.595 13.52 25.754 21.346 5.658 7.19-.007 5.702-2.221-2.563-3.821-14.258.779-28.799 8.98-40.58 14.203-20.402 31.815-25.489 55.862-25.256 14.908.145 25.32 12.88 34.65 23.564 7.213 8.26 9.395 18.223 12.152 28.51M163.61 157.179l10.609-2.843m-2.864 55.996c4.343-.22 8.588-1.142 11.827 1.704m-56.264 26.447c1.475 5.506 1.948 13.879 6.388 17.781m103.457-117.062c-6.366 3.534-9.441 6.053-11.203 12.748m34.619 44.328c-2.078 4.82-3.963 9.668-5.844 14.562m54.154-16.135c1.921 7.169 3.114 14.622 7.201 20.812" stroke="#FFB6B6" stroke-width="6" stroke-linecap="round" stroke-linejoin="round"/></svg>