<svg width="122" height="84" fill="none" xmlns="http://www.w3.org/2000/svg"><path d="M21.297 35.996c-2.276-3.59.68-8.201 4.891-7.633l5.402.73a5 5 0 0 0 4.586-1.849l3.778-4.763L42.4 19.92c3.063-3.208 8.476-1.136 8.614 3.297l.238 7.604a5 5 0 0 0 4.005 4.744l6.074 1.23c4.74.96 5.492 7.42 1.1 9.443l-6.962 3.205a5 5 0 0 0-2.763 5.736l.89 3.618c1.14 4.64-4.256 8.085-7.984 5.095l-7.463-5.985a4.99 4.99 0 0 0-5.66-.405c-4.134 2.441-8.993-1.794-7.14-6.223l1.235-2.952a5 5 0 0 0-.39-4.607l-4.897-7.723z" fill="#FFB6B6"/><path d="M78.513 28.084l38.673-13.2m-51.97 3.285c6.05-2.658 12.356-4.731 18.543-7.075 1.773-.672 2.768-1.064 4.481-1.72.46-.177 1.45-.663 2.034-.74.163-.023-.041.279-.07.334M79.685 48.343c6.893-2.754 13.896-5.497 21.068-7.419" stroke="#FFEDDD" stroke-width="6" stroke-linecap="round" stroke-linejoin="round"/></svg>