<svg width="135" height="142" fill="none" xmlns="http://www.w3.org/2000/svg"><path d="M86.746 100.43c-.762 4.18-6.062 5.565-8.771 2.291l-3.476-4.2a5 5 0 0 0-4.623-1.752l-6.007.938-3.534.224c-4.427.28-7-4.914-4.095-8.265l4.983-5.75a5 5 0 0 0 .274-6.202l-3.629-5.024c-2.832-3.92.997-9.176 5.596-7.684l7.29 2.365a5 5 0 0 0 5.921-2.34l1.8-3.262c2.309-4.184 8.61-3.055 9.322 1.67l1.425 9.46a4.99 4.99 0 0 0 3.885 4.136c4.693 1.01 5.392 7.418 1.026 9.416l-2.91 1.332a5 5 0 0 0-2.838 3.65l-1.64 8.997z" fill="#FFEC43"/><path d="M39.334 67.438l-37.37-16.53m40.418 32.835c-6.249-2.15-12.289-4.904-18.426-7.378-1.759-.709-2.755-1.095-4.46-1.775-.456-.182-1.514-.498-1.996-.836-.135-.094.22-.177.278-.198m34.435-21.8c-6.933-2.652-13.94-5.386-20.513-8.837" stroke="#FFEDDD" stroke-width="6" stroke-linecap="round" stroke-linejoin="round"/></svg>