<svg width="306" height="331" fill="none" xmlns="http://www.w3.org/2000/svg"><path d="M65.075 197.923C54.209 158.049 48.248 94.055 96.01 76.259c8.67-9.98 13.223-4.036 27.249-7.636 12.612-3.237 27.288-.025 39.95 1.238 24.914 2.485 49.536 12.508 68.018 30.133 36.462 34.771 19.279 96.579-6.863 132.705-19.57 27.043-46.971 44.798-80.72 40.039-42.563-6.003-67.564-34.427-78.57-74.815z" fill="#FFEC43"/><path d="M32.192 152.85C27.91 150.068 4.422 130.716 3 133.701M47.76 98.36c-.332-13.807-8.436-20.175-14.167-32.152-.864-1.804-4.888-14.234-2.709-5.827m63.659 4.894c0-9.31-.228-18.657.107-27.965.169-4.69.396-9.593 1.067-14.242 1.568-10.863 2.326-3.8 4.588-6.445m46.707 35.03c1.432-6.07 14.748-57.077 29.192-47.446m27.245 51.338c12.236-10.536 25.704-23.354 42.814-23.354m19.461 73.457c14.905-2.492 24.037-3.558 31.138 12.172m-15.569 41.366c18.724-2.604 29.276 5.023 35.03 22.856m-35.03 21.407c13.723 6.701 21.859 17.792 23.354 33.084M38.03 203.449c-15.99 3.775-29.233 12.923-31.138 31.138m35.03 1.946c-11.38 16.575-17.36 34.407-19.46 54.491m56.436 0c.423 14.246 3.439 24.275 9.73 36.976m48.653-35.03c3.104 9.494 7.509 18.168 11.677 27.246m40.868-35.03c5.685 5.816 12.582 11.438 15.769 19.196 2.209 5.378 3.506 9.715 7.585 13.887m21.407-56.436c15.619 1.932 14.247 17.094 19.461 29.191" stroke="#FFEC43" stroke-width="6" stroke-linecap="round" stroke-linejoin="round"/></svg>