<svg width="17" height="17" fill="none" xmlns="http://www.w3.org/2000/svg"><g clip-path="url(#clip0)"><path d="M16.66 12.386L10.704 2.07C9.732.366 7.272.366 6.302 2.07L.342 12.386c-.972 1.705.239 3.822 2.202 3.822h11.894c1.963 0 3.195-2.138 2.222-3.822zM8.5 13.92a.956.956 0 0 1-.949-.948c0-.518.43-.949.949-.949a.93.93 0 0 1 .927.973c.025.494-.43.924-.927.924zm.864-6.13c-.042.734-.087 1.465-.13 2.2-.02.238-.02.455-.02.69a.714.714 0 0 1-.714.69.699.699 0 0 1-.714-.67c-.063-1.144-.13-2.267-.193-3.411-.02-.301-.042-.606-.066-.906 0-.497.28-.907.735-1.036a.951.951 0 0 1 1.102.539c.067.15.088.3.088.476-.021.479-.067.955-.088 1.427z" fill="#49494B"/></g><defs><clipPath id="clip0"><path fill="#fff" transform="matrix(1 0 0 -1 0 17)" d="M0 0h17v17H0z"/></clipPath></defs></svg>