<svg width="93" height="93" fill="none" xmlns="http://www.w3.org/2000/svg"><path d="M20.45 91.163a.5.5 0 0 1-.707-.003l-3.168-3.196a.5.5 0 0 1 .71-.704l2.816 2.841 2.841-2.815a.5.5 0 1 1 .704.71l-3.196 3.168zm70.2-70.59a7.461 7.461 0 0 0-.875-.214l.191-.982c.416.081.755.165 1 .246l-.316.95zm-2.842-.504a43.925 43.925 0 0 0-1.95-.173l.068-.997c.73.049 1.397.11 1.994.177l-.112.993zm-3.925-.27c-.63-.019-1.293-.03-1.987-.03v-1c.704 0 1.378.011 2.018.031l-.031 1zm-3.98.003c-.64.02-1.3.05-1.977.09l-.06-.999a69.59 69.59 0 0 1 2.006-.09l.031.999zm-3.946.236a68.28 68.28 0 0 0-1.975.202l-.116-.993c.68-.08 1.348-.148 2.003-.206l.088.997zm-3.955.462c-.641.094-1.291.198-1.95.314l-.173-.985a69.87 69.87 0 0 1 1.979-.318l.144.99zm-3.896.684c-.644.133-1.293.276-1.948.431l-.23-.973a67.56 67.56 0 0 1 1.976-.437l.202.98zm-3.861.915c-.633.17-1.269.352-1.908.545l-.29-.957a64.87 64.87 0 0 1 1.938-.554l.26.966zm-3.8 1.15c-.62.21-1.24.43-1.861.663l-.35-.937a64.94 64.94 0 0 1 1.89-.673l.32.948zm-3.713 1.39c-.603.25-1.207.511-1.811.785l-.413-.911a59.148 59.148 0 0 1 1.843-.797l.381.924zm-3.603 1.635c-.587.29-1.173.594-1.758.91l-.476-.88c.595-.321 1.192-.63 1.79-.926l.444.896zm-3.48 1.882c-.566.334-1.13.68-1.692 1.038l-.538-.842a54.786 54.786 0 0 1 1.723-1.058l.507.862zm-3.334 2.131c-.54.375-1.078.763-1.612 1.163l-.6-.8a53.521 53.521 0 0 1 1.643-1.185l.57.822zm-3.164 2.374c-.511.415-1.019.843-1.522 1.284l-.66-.752a51.93 51.93 0 0 1 1.552-1.308l.63.776zm-2.974 2.607a51.85 51.85 0 0 0-1.421 1.398l-.715-.7c.478-.487.96-.962 1.449-1.424l.687.726zm-2.767 2.826c-.443.488-.88.989-1.311 1.502l-.766-.643a52.64 52.64 0 0 1 1.337-1.53l.74.671zm-2.546 3.027c-.405.52-.803 1.05-1.196 1.593l-.81-.585c.399-.553.805-1.094 1.217-1.622l.789.614zm-2.32 3.208A56.517 56.517 0 0 0 31.47 46l-.85-.527c.359-.578.724-1.145 1.095-1.7l.83.557zm-2.088 3.368a59.505 59.505 0 0 0-.954 1.73l-.884-.469c.317-.597.64-1.183.97-1.758l.868.497zm-1.862 3.51a63.35 63.35 0 0 0-.834 1.774l-.911-.412c.276-.611.558-1.212.847-1.801l.898.44zm-1.63 3.611a67.719 67.719 0 0 0-.729 1.827l-.934-.357c.24-.628.486-1.246.739-1.854l.923.384zm-1.41 3.687a73.11 73.11 0 0 0-.638 1.905l-.953-.305c.21-.653.425-1.297.647-1.93l.944.33zm-1.21 3.773a78.95 78.95 0 0 0-.535 1.924l-.966-.256a80.94 80.94 0 0 1 .542-1.948l.96.28zm-1.022 3.857a85.83 85.83 0 0 0-.435 1.913l-.977-.21c.14-.654.287-1.3.44-1.936l.972.233zm-.835 3.878a93.994 93.994 0 0 0-.354 1.957l-.986-.168a94.69 94.69 0 0 1 .358-1.978l.982.19zm-.664 3.896c-.098.654-.19 1.316-.277 1.986l-.991-.128c.087-.676.18-1.345.28-2.006l.988.148zm-.515 3.972c-.07.642-.136 1.291-.197 1.948l-.996-.092c.062-.662.128-1.317.2-1.966l.993.11zm-.363 3.938c-.05.668-.095 1.344-.134 2.026l-.999-.057c.04-.688.085-1.37.136-2.044l.997.075zm-.232 3.968c-.027.654-.05 1.314-.068 1.98l-1-.026a140.7 140.7 0 0 1 .07-1.996l.998.042zm-.107 4c-.004.34-.007.68-.008 1.024l-1-.005c.001-.345.004-.69.008-1.031l1 .012zm.196 1.732a1 1 0 0 1-1.415-.007l-6.335-6.392a1 1 0 0 1 1.42-1.408l5.632 5.682 5.683-5.631a1 1 0 0 1 1.407 1.42l-6.392 6.336zm69.69-70.473a7.008 7.008 0 0 0-.813-.196l.382-1.963c.426.082.789.17 1.064.262l-.633 1.897zm-2.74-.48a43.414 43.414 0 0 0-1.927-.17l.135-1.996c.737.05 1.411.11 2.016.179l-.224 1.987zm-3.885-.267a64.752 64.752 0 0 0-1.97-.03l-.002-2c.71 0 1.39.011 2.035.032l-.063 1.998zm-3.948.003c-.635.02-1.29.049-1.963.089l-.12-1.997a70.281 70.281 0 0 1 2.02-.091l.063 1.998zM76 20.536c-.641.056-1.295.123-1.961.2l-.233-1.986c.686-.08 1.359-.148 2.018-.207L76 20.536zm-3.926.46c-.637.092-1.283.196-1.937.31l-.345-1.97a70.683 70.683 0 0 1 1.993-.32l.289 1.98zm-3.869.678c-.638.131-1.283.274-1.933.428l-.46-1.947a69.693 69.693 0 0 1 1.99-.44l.403 1.96zm-3.831.908c-.628.168-1.259.349-1.893.54l-.58-1.914a65.433 65.433 0 0 1 1.953-.558l.52 1.932zm-3.77 1.141c-.614.208-1.23.426-1.846.657l-.7-1.873a62.188 62.188 0 0 1 1.905-.678l.64 1.894zm-3.682 1.38a57.41 57.41 0 0 0-1.796.776l-.825-1.821c.62-.281 1.239-.549 1.858-.805l.763 1.85zm-3.572 1.619c-.582.288-1.163.589-1.742.902l-.952-1.759c.6-.325 1.203-.636 1.806-.935l.888 1.792zm-3.449 1.865c-.56.33-1.12.673-1.675 1.028l-1.078-1.685a55.524 55.524 0 0 1 1.739-1.066l1.014 1.723zM46.6 30.698a53.04 53.04 0 0 0-1.597 1.152l-1.2-1.6c.549-.412 1.102-.81 1.658-1.196l1.14 1.644zm-3.134 2.352c-.507.41-1.01.834-1.507 1.271l-1.319-1.504c.518-.453 1.04-.894 1.566-1.32l1.26 1.553zm-2.945 2.582c-.474.448-.944.91-1.408 1.384l-1.43-1.399a54.9 54.9 0 0 1 1.463-1.438l1.375 1.453zm-2.74 2.799c-.44.483-.872.979-1.3 1.487l-1.53-1.287c.443-.528.893-1.043 1.348-1.544l1.481 1.343zm-2.523 2.998c-.4.514-.796 1.04-1.185 1.578l-1.621-1.17c.403-.56.813-1.105 1.229-1.638l1.577 1.23zm-2.298 3.178c-.361.54-.717 1.092-1.066 1.655l-1.7-1.054a58.1 58.1 0 0 1 1.104-1.713l1.662 1.112zm-2.07 3.34c-.322.56-.637 1.131-.947 1.714l-1.767-.937c.32-.602.646-1.193.979-1.773l1.735.995zm-1.847 3.48a62.945 62.945 0 0 0-.828 1.76l-1.822-.824c.278-.616.563-1.22.854-1.815l1.796.88zm-1.618 3.583a67.72 67.72 0 0 0-.723 1.813l-1.868-.714c.242-.632.49-1.254.744-1.867l1.847.768zm-1.4 3.66a76.217 76.217 0 0 0-.633 1.892l-1.905-.61c.21-.657.428-1.305.651-1.943l1.888.661zm-1.2 3.748a74.525 74.525 0 0 0-.532 1.912l-1.934-.512c.176-.663.358-1.316.546-1.96l1.92.56zm-1.017 3.833c-.15.626-.293 1.26-.432 1.903l-1.955-.421c.142-.658.29-1.307.442-1.948l1.945.466zm-.83 3.856a95.45 95.45 0 0 0-.352 1.947l-1.972-.336c.114-.67.234-1.333.36-1.988l1.964.377zm-.66 3.876c-.098.651-.19 1.31-.276 1.976l-1.983-.256c.088-.68.181-1.352.28-2.016l1.979.296zm-.513 3.953c-.07.64-.136 1.285-.196 1.939l-1.992-.184c.062-.665.129-1.323.2-1.975l1.988.22zm-.361 3.92c-.05.666-.095 1.339-.134 2.018l-1.997-.115c.04-.691.085-1.375.136-2.052l1.994.15zm-.231 3.953c-.027.65-.05 1.308-.068 1.972l-2-.054c.019-.674.042-1.341.07-2.003l1.998.085zm-.107 3.984c-.004.338-.007.678-.008 1.02l-2-.01c.001-.346.004-.69.008-1.034l2 .024z" fill="#3DAAEE"/></svg>