<svg width="93" height="93" fill="none" xmlns="http://www.w3.org/2000/svg"><path d="M72.359 91.163a.5.5 0 0 0 .707-.003l3.167-3.196a.5.5 0 1 0-.71-.704l-2.816 2.841-2.84-2.815a.5.5 0 1 0-.705.71l3.197 3.168zm-70.2-70.59c.186-.063.478-.137.874-.214l-.19-.982a8.56 8.56 0 0 0-1.001.246l.316.95zM5 20.068a43.933 43.933 0 0 1 1.949-.173l-.068-.997a44.8 44.8 0 0 0-1.993.177l.112.993zm3.925-.27c.629-.019 1.292-.03 1.986-.03l.001-1a64.7 64.7 0 0 0-2.019.031l.032 1zm3.98.003c.639.02 1.298.05 1.976.09l.06-.999a69.599 69.599 0 0 0-2.006-.09l-.03.999zm3.946.236a68.28 68.28 0 0 1 1.975.202l.116-.993c-.68-.08-1.349-.148-2.004-.206l-.087.997zm3.954.462c.641.094 1.292.198 1.95.314l.173-.985a69.813 69.813 0 0 0-1.979-.318l-.144.99zm3.897.684a66.98 66.98 0 0 1 1.947.431l.23-.973a67.627 67.627 0 0 0-1.976-.437l-.201.98zm3.86.915c.633.17 1.269.352 1.908.545l.29-.957a64.87 64.87 0 0 0-1.938-.554l-.26.966zm3.801 1.15c.619.21 1.239.43 1.86.663l.351-.937a62.168 62.168 0 0 0-1.89-.673l-.32.948zm3.712 1.39c.604.25 1.208.511 1.812.785l.412-.911a59.153 59.153 0 0 0-1.842-.797l-.382.924zm3.603 1.635c.588.29 1.174.594 1.758.91l.476-.88a56.487 56.487 0 0 0-1.79-.926l-.444.896zm3.48 1.882c.567.334 1.13.68 1.692 1.038l.539-.842a54.786 54.786 0 0 0-1.723-1.058l-.508.862zm3.334 2.131a52.78 52.78 0 0 1 1.612 1.163l.6-.8a53.4 53.4 0 0 0-1.642-1.185l-.57.822zm3.164 2.374c.512.415 1.02.843 1.522 1.284l.66-.752a51.93 51.93 0 0 0-1.552-1.308l-.63.776zm2.974 2.607c.479.453.953.92 1.421 1.398l.715-.7a53.84 53.84 0 0 0-1.448-1.424l-.688.726zm2.767 2.826c.443.488.88.989 1.312 1.502l.765-.643a53.66 53.66 0 0 0-1.336-1.53l-.74.671zm2.547 3.027c.404.52.803 1.05 1.195 1.593l.811-.585c-.4-.553-.806-1.094-1.218-1.622l-.788.614zm2.319 3.208a56.97 56.97 0 0 1 1.075 1.67l.85-.527a57.644 57.644 0 0 0-1.095-1.7l-.83.557zm2.088 3.368c.325.566.643 1.142.955 1.73l.883-.469a60.782 60.782 0 0 0-.97-1.758l-.868.497zm1.862 3.51c.284.58.563 1.172.834 1.774l.912-.412a64.52 64.52 0 0 0-.848-1.801l-.898.44zm1.631 3.611c.249.599.492 1.208.728 1.827l.934-.357a69.047 69.047 0 0 0-.739-1.854l-.923.384zm1.41 3.687c.218.625.431 1.26.637 1.905l.953-.305a74.474 74.474 0 0 0-.647-1.93l-.944.33zm1.209 3.773c.184.632.363 1.273.535 1.924l.967-.256a80.024 80.024 0 0 0-.542-1.948l-.96.28zm1.022 3.857c.15.629.296 1.267.435 1.913l.978-.21c-.141-.654-.288-1.3-.44-1.936l-.973.233zm.835 3.878c.124.644.242 1.296.354 1.957l.986-.168a94.69 94.69 0 0 0-.358-1.978l-.982.19zm.664 3.896c.098.654.19 1.316.277 1.986l.992-.128a105.45 105.45 0 0 0-.28-2.006l-.989.148zm.515 3.972c.07.642.137 1.291.197 1.948l.996-.092c-.061-.662-.128-1.317-.2-1.966l-.993.11zm.364 3.938c.05.668.094 1.344.134 2.026l.998-.057c-.04-.688-.085-1.37-.135-2.044l-.998.075zm.23 3.968c.028.654.051 1.314.07 1.98l.999-.026c-.018-.672-.041-1.337-.069-1.996l-1 .042zm.108 4c.004.34.007.68.009 1.024l1-.005c-.002-.345-.005-.69-.009-1.031l-1 .012zm-.195 1.732a1 1 0 0 0 1.414-.007l6.335-6.392a1 1 0 1 0-1.42-1.408l-5.632 5.682-5.682-5.631a1 1 0 0 0-1.408 1.42l6.393 6.336zM2.317 21.046c.157-.052.425-.121.812-.196l-.382-1.963c-.425.082-.788.17-1.063.262l.632 1.897zm2.74-.48a43.425 43.425 0 0 1 1.926-.17L6.85 18.4a45.46 45.46 0 0 0-2.016.179l.224 1.987zM8.94 20.3a61.71 61.71 0 0 1 1.97-.03l.003-2c-.71 0-1.39.011-2.035.032L8.94 20.3zm3.949.003c.634.02 1.29.049 1.963.089l.12-1.997a70.265 70.265 0 0 0-2.021-.091L12.89 20.3zm3.918.234c.64.056 1.294.123 1.96.2L19 18.751a71.32 71.32 0 0 0-2.018-.207l-.175 1.993zm3.926.46a68.75 68.75 0 0 1 1.936.31l.345-1.97a70.567 70.567 0 0 0-1.992-.32l-.29 1.98zm3.868.678c.639.131 1.283.274 1.933.428l.461-1.947a68.708 68.708 0 0 0-1.991-.44l-.403 1.96zm3.832.908c.627.168 1.258.349 1.892.54l.58-1.914a65.348 65.348 0 0 0-1.953-.558l-.52 1.932zm3.77 1.141c.614.208 1.229.426 1.845.657l.701-1.873a62.183 62.183 0 0 0-1.906-.678l-.64 1.894zm3.681 1.38c.599.246 1.198.505 1.796.776l.826-1.821c-.62-.281-1.24-.549-1.859-.805l-.763 1.85zm3.572 1.619c.582.288 1.163.589 1.742.902l.952-1.759c-.6-.325-1.202-.636-1.805-.935l-.889 1.792zm3.449 1.865c.561.33 1.12.673 1.676 1.028l1.077-1.685a55.408 55.408 0 0 0-1.739-1.066l-1.014 1.723zm3.302 2.111c.536.372 1.069.755 1.597 1.152l1.2-1.6a52.871 52.871 0 0 0-1.658-1.196l-1.139 1.644zm3.134 2.352c.507.41 1.01.834 1.507 1.271l1.32-1.504a53.387 53.387 0 0 0-1.567-1.32l-1.26 1.553zm2.946 2.582c.474.448.943.91 1.407 1.384l1.43-1.399a54.87 54.87 0 0 0-1.462-1.438l-1.375 1.453zm2.74 2.799c.438.483.872.979 1.299 1.487l1.53-1.287a53.949 53.949 0 0 0-1.348-1.544l-1.481 1.343zm2.523 2.998c.4.514.795 1.04 1.184 1.578l1.621-1.17a55.85 55.85 0 0 0-1.228-1.638l-1.578 1.23zm2.297 3.178c.361.54.717 1.092 1.066 1.655l1.7-1.054a57.896 57.896 0 0 0-1.104-1.713l-1.662 1.112zm2.07 3.34c.322.56.638 1.131.947 1.714l1.767-.937a61.17 61.17 0 0 0-.979-1.773l-1.734.995zm1.847 3.48c.282.576.558 1.163.828 1.76l1.822-.824a65.097 65.097 0 0 0-.854-1.815l-1.796.88zm1.618 3.583c.247.594.488 1.199.723 1.813l1.868-.714a69.51 69.51 0 0 0-.744-1.867l-1.847.768zm1.4 3.66c.217.621.428 1.252.633 1.892l1.905-.61a74.836 74.836 0 0 0-.651-1.943l-1.888.661zm1.2 3.748a78.4 78.4 0 0 1 .533 1.912l1.933-.512a81.284 81.284 0 0 0-.545-1.96l-1.92.56zM69 66.251c.15.626.294 1.26.432 1.903l1.955-.421a87.958 87.958 0 0 0-.442-1.948L69 66.251zm.83 3.856c.123.641.24 1.29.353 1.947l1.971-.336a95.152 95.152 0 0 0-.36-1.988l-1.964.377zm.66 3.876c.098.651.19 1.31.276 1.976l1.984-.256c-.088-.68-.182-1.352-.281-2.016l-1.978.296zm.513 3.953c.07.64.136 1.285.196 1.939l1.992-.184a111.82 111.82 0 0 0-.2-1.975l-1.988.22zm.362 3.92c.05.666.094 1.339.134 2.018l1.996-.115a120.41 120.41 0 0 0-.136-2.052l-1.994.15zm.23 3.953c.028.65.05 1.308.068 1.972l2-.054c-.019-.674-.042-1.341-.07-2.003l-1.998.085zm.107 3.984c.004.338.007.678.009 1.02l2-.01c-.002-.346-.005-.69-.009-1.034l-2 .024z" fill="#3DAAEE"/></svg>