<svg width="54" height="107" fill="none" xmlns="http://www.w3.org/2000/svg"><path d="M1.516 98.659a.5.5 0 0 0 .36.608l4.36 1.112a.5.5 0 1 0 .248-.969l-3.876-.989.99-3.876a.5.5 0 1 0-.97-.247l-1.112 4.36zM26.834 2.376c.149.13.36.344.627.647l.75-.662a8.388 8.388 0 0 0-.719-.738l-.658.753zm1.873 2.197c.35.468.732 1 1.136 1.593l.827-.563a44.998 44.998 0 0 0-1.163-1.63l-.8.6zm2.22 3.248c.336.533.681 1.1 1.032 1.698l.863-.506a63.073 63.073 0 0 0-1.049-1.725l-.846.533zm2.014 3.433c.307.56.615 1.145.924 1.75l.89-.454a69.457 69.457 0 0 0-.936-1.776l-.878.48zm1.795 3.522c.278.585.554 1.187.826 1.805l.915-.402a71.221 71.221 0 0 0-.837-1.832l-.904.429zm1.604 3.644c.244.6.483 1.214.717 1.84l.937-.35a70.38 70.38 0 0 0-.728-1.867l-.926.377zm1.383 3.706c.212.622.418 1.255.615 1.898l.956-.294c-.2-.653-.41-1.295-.624-1.926l-.947.322zm1.167 3.793c.174.631.34 1.271.496 1.92l.972-.234a63.81 63.81 0 0 0-.504-1.951l-.964.265zm.932 3.86c.133.639.258 1.285.372 1.939l.985-.172a62.114 62.114 0 0 0-.378-1.971l-.979.204zm.681 3.904c.091.647.172 1.3.242 1.96l.994-.106a59.253 59.253 0 0 0-.245-1.993l-.99.14zm.416 3.935c.047.654.082 1.313.106 1.977l.999-.035a56.58 56.58 0 0 0-.107-2.013l-.998.07zm.14 3.954a55.067 55.067 0 0 1-.039 1.984l1 .038a54.87 54.87 0 0 0 .038-2.02l-1-.002zm-.15 3.954a50.45 50.45 0 0 1-.186 1.98l.994.112c.076-.676.14-1.349.19-2.017l-.998-.075zm-.444 3.93c-.1.652-.211 1.306-.337 1.963l.982.188c.129-.67.243-1.337.343-2l-.988-.15zm-.742 3.885a52.58 52.58 0 0 1-.486 1.934l.965.262c.18-.66.344-1.316.495-1.97l-.974-.226zm-1.036 3.817a55.15 55.15 0 0 1-.63 1.892l.942.334c.228-.644.442-1.287.642-1.927l-.954-.299zm-1.32 3.73a54.626 54.626 0 0 1-.769 1.837l.916.402c.274-.625.535-1.248.782-1.871l-.93-.369zm-1.592 3.623c-.285.59-.583 1.181-.895 1.773l.885.466c.317-.602.62-1.203.91-1.804l-.9-.435zm-1.847 3.507a59.538 59.538 0 0 1-1.008 1.699l.852.524c.354-.576.696-1.151 1.025-1.727l-.869-.496zm-2.083 3.383a63.675 63.675 0 0 1-1.107 1.617l.817.578c.387-.548.761-1.096 1.124-1.643l-.834-.552zm-2.288 3.235c-.39.517-.792 1.035-1.206 1.553l.78.624c.42-.525.828-1.05 1.224-1.576l-.798-.601zm-2.466 3.082c-.428.505-.867 1.01-1.319 1.515l.745.667c.458-.511.904-1.023 1.337-1.535l-.763-.647zm-2.64 2.954c-.452.479-.915.958-1.388 1.436l.71.703c.48-.483.948-.968 1.405-1.454l-.727-.685zm-2.808 2.834c-.467.449-.943.897-1.43 1.344l.677.737c.492-.453.974-.906 1.446-1.36l-.693-.72zM18.72 86.19c-.492.433-.995.866-1.508 1.297l.644.765a93.904 93.904 0 0 0 1.524-1.31l-.66-.751zm-3.023 2.546c-.514.416-1.039.83-1.572 1.245l.613.79a97.686 97.686 0 0 0 1.587-1.257l-.628-.778zm-3.164 2.456c-.518.386-1.044.771-1.58 1.156l.584.812c.54-.388 1.071-.777 1.594-1.167l-.598-.801zm-3.211 2.307c-.552.382-1.111.763-1.68 1.142l.555.832c.574-.383 1.138-.767 1.694-1.152l-.57-.822zm-3.305 2.21c-.55.354-1.108.708-1.673 1.061l.53.849c.569-.356 1.13-.713 1.685-1.07l-.542-.84zm-3.394 2.117c-.291.176-.584.351-.88.526l.511.86c.297-.176.592-.353.885-.53l-.516-.856zm-1.593.709a1 1 0 0 0 .722 1.216l8.72 2.225a1 1 0 1 0 .495-1.938L3.216 98.06l1.978-7.751a1 1 0 0 0-1.938-.495l-2.225 8.72zM26.505 2.753c.125.11.32.305.582.601l1.499-1.323a8.87 8.87 0 0 0-.765-.784l-1.316 1.506zm1.802 2.12c.346.461.723.987 1.123 1.574l1.653-1.126c-.416-.61-.81-1.16-1.175-1.648l-1.6 1.2zm2.198 3.214c.332.529.675 1.09 1.023 1.685l1.725-1.012a63.624 63.624 0 0 0-1.056-1.739l-1.693 1.066zm1.997 3.406a65.5 65.5 0 0 1 .917 1.738l1.782-.908a70.116 70.116 0 0 0-.944-1.789l-1.755.96zm1.782 3.497c.276.581.55 1.179.82 1.793l1.83-.806a71.754 71.754 0 0 0-.842-1.844l-1.807.857zm1.593 3.618c.242.596.48 1.206.712 1.827l1.873-.7a70.627 70.627 0 0 0-.733-1.88l-1.852.753zm1.373 3.68c.21.617.414 1.244.61 1.883l1.912-.588a68.443 68.443 0 0 0-.629-1.94l-1.893.645zm1.158 3.763c.172.627.337 1.262.492 1.906l1.944-.47a65.32 65.32 0 0 0-.508-1.966l-1.928.53zm.925 3.83c.132.634.255 1.275.368 1.923l1.97-.344a62.834 62.834 0 0 0-.38-1.987l-1.958.408zm.675 3.872c.09.641.17 1.289.24 1.942l1.989-.21a59.606 59.606 0 0 0-.248-2.01l-1.98.278zm.413 3.9c.046.648.08 1.302.104 1.96l1.999-.07c-.025-.683-.06-1.36-.108-2.031l-1.995.141zm.138 3.919c-.001.65-.014 1.306-.038 1.965l1.998.076c.026-.684.039-1.364.04-2.04l-2-.001zm-.148 3.916c-.05.65-.11 1.304-.185 1.96l1.988.226c.077-.682.14-1.361.191-2.036l-1.994-.15zm-.44 3.893a51.227 51.227 0 0 1-.334 1.944l1.965.376c.129-.676.244-1.35.346-2.02l-1.978-.3zm-.735 3.848a51.48 51.48 0 0 1-.481 1.915l1.93.524c.18-.665.347-1.328.5-1.99l-1.95-.45zm-1.026 3.78a52.047 52.047 0 0 1-.625 1.874l1.885.668c.23-.65.447-1.298.649-1.945l-1.91-.597zm-1.308 3.694c-.24.606-.494 1.213-.761 1.82l1.83.805c.278-.63.54-1.26.79-1.888l-1.86-.737zm-1.578 3.59a54.602 54.602 0 0 1-.886 1.758l1.77.932c.319-.607.625-1.214.918-1.82l-1.801-.87zm-1.83 3.477c-.32.561-.654 1.123-1 1.685l1.703 1.049c.358-.581.702-1.162 1.034-1.742l-1.737-.992zm-2.066 3.355a63.64 63.64 0 0 1-1.098 1.605l1.633 1.154c.39-.552.767-1.103 1.133-1.655l-1.668-1.104zm-2.27 3.21a67.71 67.71 0 0 1-1.198 1.541l1.562 1.25a68.85 68.85 0 0 0 1.233-1.588l-1.597-1.203zm-2.448 3.06a72.666 72.666 0 0 1-1.31 1.504l1.49 1.334c.46-.514.91-1.03 1.346-1.545l-1.526-1.293zm-2.623 2.934c-.449.476-.909.952-1.38 1.427l1.421 1.407a74.1 74.1 0 0 0 1.414-1.463l-1.455-1.371zm-2.79 2.817c-.464.446-.938.891-1.422 1.336l1.353 1.473c.495-.455.98-.91 1.455-1.368l-1.387-1.441zm-2.906 2.669c-.49.43-.99.86-1.5 1.29l1.288 1.53a95.33 95.33 0 0 0 1.532-1.318l-1.32-1.502zm-3.007 2.532c-.512.414-1.034.827-1.565 1.239l1.226 1.58c.542-.42 1.073-.841 1.596-1.263l-1.257-1.556zm-3.149 2.444c-.515.384-1.04.768-1.572 1.15l1.167 1.625c.542-.39 1.076-.78 1.6-1.172l-1.195-1.603zm-3.197 2.297c-.549.38-1.106.76-1.673 1.138l1.111 1.663c.576-.385 1.143-.77 1.7-1.157l-1.138-1.644zm-3.292 2.2c-.547.354-1.103.706-1.666 1.058l1.059 1.697c.572-.357 1.136-.715 1.692-1.074l-1.085-1.68zm-3.38 2.11c-.29.175-.582.35-.876.524l1.02 1.72c.298-.177.595-.354.889-.531l-1.034-1.713z" fill="#fff"/></svg>