<svg width="74" height="104" fill="none" xmlns="http://www.w3.org/2000/svg"><path d="M72.754 89.578a.5.5 0 0 1-.203.677L68.59 92.39a.5.5 0 1 1-.474-.88l3.52-1.898-1.897-3.521a.5.5 0 0 1 .88-.475l2.135 3.962zM24.886 2.286c-.113.161-.266.42-.452.78l-.888-.462a8.22 8.22 0 0 1 .52-.89l.82.572zM23.6 4.87a43.97 43.97 0 0 0-.717 1.82l-.938-.346c.254-.686.5-1.309.733-1.862l.922.388zm-1.368 3.69a61.779 61.779 0 0 0-.59 1.897l-.96-.282c.199-.676.4-1.32.6-1.928l.95.313zm-1.123 3.818c-.162.619-.32 1.26-.473 1.922l-.974-.225c.155-.671.315-1.322.48-1.95l.967.253zm-.89 3.852a71.222 71.222 0 0 0-.363 1.952l-.986-.17c.116-.675.24-1.335.37-1.98l.98.198zm-.673 3.924a69.082 69.082 0 0 0-.251 1.96L18.301 22a71.65 71.65 0 0 1 .255-1.987l.99.14zm-.446 3.93a66.443 66.443 0 0 0-.137 1.99l-.999-.053c.037-.682.084-1.356.14-2.02l.996.084zm-.214 3.963a63.97 63.97 0 0 0-.016 1.984l-1 .007c-.005-.678 0-1.35.016-2.015l1 .024zm.03 3.97c.025.653.061 1.31.109 1.972l-.998.072a61.826 61.826 0 0 1-.11-2.004l.999-.04zm.284 3.954c.068.65.148 1.303.24 1.96l-.99.138a59.048 59.048 0 0 1-.245-1.993l.995-.105zm.548 3.918c.114.646.24 1.294.377 1.944l-.978.208a56.744 56.744 0 0 1-.383-1.979l.984-.173zm.823 3.87c.16.638.331 1.277.517 1.917l-.96.278a54.684 54.684 0 0 1-.527-1.951l.97-.243zm1.101 3.8c.207.626.427 1.25.66 1.876l-.937.35a53.35 53.35 0 0 1-.672-1.911l.95-.314zm1.383 3.707c.253.608.52 1.216.801 1.823l-.907.42a52.667 52.667 0 0 1-.817-1.858l.923-.385zm1.66 3.59c.3.587.612 1.173.94 1.758l-.874.488a53.095 53.095 0 0 1-.957-1.792l.891-.454zm1.929 3.453c.343.562.7 1.123 1.07 1.682l-.834.553c-.377-.57-.74-1.142-1.09-1.715l.854-.52zm2.184 3.298c.383.535.78 1.067 1.19 1.597l-.791.612a55.35 55.35 0 0 1-1.212-1.626l.813-.583zm2.421 3.131c.42.504.852 1.005 1.297 1.504l-.745.666a57.556 57.556 0 0 1-1.32-1.53l.768-.64zm2.64 2.956c.451.47.914.939 1.39 1.404l-.7.715a60.56 60.56 0 0 1-1.412-1.428l.722-.691zm2.84 2.778c.477.436.966.87 1.466 1.301l-.653.758a64.649 64.649 0 0 1-1.488-1.322l.676-.737zm3.003 2.585c.505.408 1.02.813 1.547 1.215l-.607.795a69.196 69.196 0 0 1-1.569-1.233l.63-.777zm3.139 2.394c.537.386 1.086.77 1.646 1.15l-.561.828a74.711 74.711 0 0 1-1.67-1.166l.585-.812zm3.277 2.226c.554.356 1.119.709 1.694 1.058l-.519.855a80.744 80.744 0 0 1-1.715-1.071l.54-.842zm3.41 2.071a85.49 85.49 0 0 0 1.713.958l-.478.879a86.762 86.762 0 0 1-1.733-.97l.498-.867zm3.484 1.897c.583.301 1.176.599 1.777.893l-.44.899a95.086 95.086 0 0 1-1.795-.903l.458-.889zm3.55 1.739c.6.279 1.209.554 1.827.827l-.404.915c-.624-.275-1.239-.554-1.845-.835l.422-.907zM60.256 85c.596.25 1.2.496 1.813.74l-.37.93a111.03 111.03 0 0 1-1.829-.747l.386-.923zm3.675 1.462c.627.237 1.262.471 1.906.702l-.338.941c-.649-.233-1.29-.469-1.922-.707l.354-.936zm3.741 1.344c.62.211 1.246.42 1.88.625l-.308.951c-.64-.207-1.27-.417-1.895-.63l.323-.946zm3.806 1.233c.325.1.651.2.98.298l-.287.958-.987-.3.294-.956zm1.716.302a1 1 0 0 1-.406 1.355l-7.922 4.27a1 1 0 1 1-.949-1.76l7.042-3.796-3.795-7.043a1 1 0 1 1 1.76-.948l4.27 7.922zM25.296 2.572a7.006 7.006 0 0 0-.418.723l-1.776-.92c.2-.386.387-.709.553-.946l1.641 1.143zm-1.235 2.492a43.457 43.457 0 0 0-.709 1.8l-1.876-.693a45.39 45.39 0 0 1 .742-1.883l1.843.776zm-1.354 3.651a61.47 61.47 0 0 0-.586 1.882l-1.918-.564c.2-.681.402-1.33.604-1.943l1.9.625zm-1.114 3.788a68.51 68.51 0 0 0-.47 1.908l-1.948-.45c.156-.676.317-1.33.483-1.963l1.935.505zm-.883 3.825a70.06 70.06 0 0 0-.362 1.937l-1.97-.338c.116-.68.24-1.345.371-1.994l1.96.395zm-.67 3.895c-.09.637-.174 1.286-.248 1.946l-1.988-.226a72.24 72.24 0 0 1 .257-2.002l1.98.282zm-.441 3.903c-.055.65-.1 1.308-.137 1.975l-1.997-.108c.037-.687.084-1.366.14-2.035l1.994.168zm-.213 3.932c-.015.65-.021 1.306-.016 1.968l-2 .015c-.005-.684 0-1.36.017-2.03l1.999.047zm.03 3.94c.025.646.06 1.298.107 1.955l-1.994.142a62.57 62.57 0 0 1-.112-2.02l1.998-.078zm.281 3.92c.068.644.147 1.292.238 1.942l-1.98.277a59.85 59.85 0 0 1-.247-2.01l1.99-.21zm.544 3.884c.112.64.236 1.282.373 1.926l-1.956.416a57.223 57.223 0 0 1-.387-1.996l1.97-.346zm.815 3.835c.158.632.328 1.265.512 1.898l-1.92.557a55.26 55.26 0 0 1-.532-1.969l1.94-.486zm1.091 3.765c.205.619.422 1.238.654 1.857l-1.874.7a53.952 53.952 0 0 1-.679-1.93l1.899-.627zm1.37 3.67c.25.603.515 1.205.793 1.806l-1.815.84a53.48 53.48 0 0 1-.825-1.876l1.846-.77zm1.644 3.556c.296.581.606 1.162.93 1.741l-1.746.976a53.37 53.37 0 0 1-.966-1.81l1.782-.907zm1.91 3.42c.34.557.692 1.112 1.06 1.666l-1.668 1.105a53.96 53.96 0 0 1-1.1-1.73l1.708-1.042zm2.163 3.267c.38.53.772 1.057 1.179 1.582l-1.582 1.224a55.728 55.728 0 0 1-1.223-1.641l1.626-1.165zm2.4 3.102c.415.5.843.996 1.285 1.49l-1.491 1.333a58.03 58.03 0 0 1-1.332-1.543l1.537-1.28zm2.617 2.93c.446.467.906.931 1.377 1.393l-1.398 1.43a61.373 61.373 0 0 1-1.424-1.44l1.445-1.383zm2.817 2.755c.472.433.957.864 1.453 1.291l-1.305 1.516a65.21 65.21 0 0 1-1.5-1.332l1.352-1.475zm2.979 2.565c.5.405 1.012.807 1.535 1.206l-1.213 1.59a69.686 69.686 0 0 1-1.58-1.241l1.258-1.555zm3.116 2.377c.534.384 1.079.765 1.635 1.142l-1.123 1.655a74.83 74.83 0 0 1-1.68-1.173l1.168-1.624zm3.255 2.212c.55.353 1.112.703 1.683 1.05l-1.037 1.71a81.345 81.345 0 0 1-1.726-1.077l1.08-1.683zm3.39 2.058c.557.32 1.125.638 1.702.952l-.957 1.757a88.04 88.04 0 0 1-1.742-.975l.996-1.734zm3.464 1.886c.58.3 1.169.595 1.767.888l-.88 1.797c-.61-.3-1.212-.602-1.804-.907l.917-1.778zm3.53 1.73c.598.277 1.203.551 1.818.822l-.806 1.83a100.04 100.04 0 0 1-1.854-.839l.843-1.814zm3.647 1.608c.593.248 1.195.494 1.805.737l-.74 1.858c-.62-.247-1.233-.497-1.837-.75l.772-1.845zm3.658 1.455c.625.236 1.258.47 1.899.7l-.676 1.882c-.651-.234-1.294-.47-1.93-.71l.707-1.872zm3.727 1.339c.616.21 1.24.418 1.872.623l-.616 1.902a131.21 131.21 0 0 1-1.902-.632l.645-1.893zm3.79 1.229c.324.099.65.198.977.296l-.574 1.916c-.332-.1-.662-.2-.99-.301l.588-1.911z" fill="#fff"/></svg>