<?xml version="1.0" encoding="utf-8"?><svg xmlns="http://www.w3.org/2000/svg" xmlns:xlink="http://www.w3.org/1999/xlink"><symbol viewBox="0 0 224.512 224.512" id="close" xmlns="http://www.w3.org/2000/svg"><path d="M224.507 6.997L217.521 0 112.256 105.258 6.998 0 .005 6.997l105.258 105.257L.005 217.512l6.993 7L112.256 119.24l105.265 105.272 6.986-7-105.258-105.258z"/></symbol><symbol viewBox="0 0 93.169 93.169" id="iphone" xmlns="http://www.w3.org/2000/svg"><path d="M64.902 0H28.265a6.72 6.72 0 0 0-6.72 6.72v79.729a6.72 6.72 0 0 0 6.72 6.72h36.637a6.72 6.72 0 0 0 6.722-6.72V6.72A6.722 6.722 0 0 0 64.902 0zM42.088 3.973h8.991a.587.587 0 0 1 0 1.173h-8.991a.586.586 0 0 1 0-1.173zm-8.962-1.41a.938.938 0 1 1 0 1.876.938.938 0 0 1 0-1.876zm-4.25-.562a1.5 1.5 0 1 1 0 3 1.5 1.5 0 0 1 0-3zM48.93 89.758h-4.691a2.692 2.692 0 1 1 0-5.383h4.691a2.692 2.692 0 1 1 0 5.383zm19.847-7.51H24.391V10.92h44.386v71.328z"/></symbol><symbol viewBox="0 0 30 30" id="ok" xmlns="http://www.w3.org/2000/svg"><path d="M15 0C6.73 0 0 6.729 0 15s6.73 15 15 15 15-6.729 15-15S23.27 0 15 0zm0 28.846C7.366 28.846 1.154 22.634 1.154 15S7.366 1.154 15 1.154 28.846 7.366 28.846 15 22.634 28.846 15 28.846z"/><path d="M22.069 8.848l-8.867 9.975-5.342-4.274a.577.577 0 0 0-.72.902l5.769 4.615a.576.576 0 0 0 .792-.067l9.23-10.385a.576.576 0 1 0-.862-.766z"/></symbol></svg>